<?xml version="1.0" encoding="utf-8"?>
<!-- Generator: Adobe Illustrator 16.0.0, SVG Export Plug-In . SVG Version: 6.00 Build 0)  -->
<!DOCTYPE svg PUBLIC "-//W3C//DTD SVG 1.1//EN" "http://www.w3.org/Graphics/SVG/1.1/DTD/svg11.dtd">
<svg version="1.1" id="Layer_2" xmlns="http://www.w3.org/2000/svg" xmlns:xlink="http://www.w3.org/1999/xlink" x="0px" y="0px"
	 width="286px" height="70px" viewBox="0 0 286 70" enable-background="new 0 0 286 70" xml:space="preserve">
<g>
	<polygon fill="#FFFFFF" points="52,0 286,0 286,70 0,70 	"/>
	<g>
		<g>
			<path fill-rule="evenodd" clip-rule="evenodd" d="M149.363,33.796h-0.385c-0.786-0.718-1.769-1.269-2.941-1.628
				s-2.584-0.526-4.188-0.526c-2.824,0-5.004,0.526-6.581,1.58c-1.604,1.053-2.394,2.512-2.394,4.38
				c0,1.843,0.837,3.326,2.487,4.428c1.651,1.101,3.854,1.652,6.63,1.652c1.435,0,2.777-0.168,4.045-0.503
				c1.245-0.313,2.44-0.839,3.565-1.509l0.408,0.096c-0.097,0.264-0.19,0.527-0.239,0.79c-0.047,0.288-0.097,0.552-0.12,0.838
				c-1.389,0.431-2.754,0.743-4.117,0.957c-1.388,0.216-2.801,0.311-4.284,0.311c-3.876,0-6.916-0.62-9.119-1.866
				c-2.201-1.244-3.303-2.967-3.303-5.098c0-2.154,1.15-3.828,3.471-5.075c2.321-1.221,5.505-1.843,9.551-1.843
				c1.388,0,2.799,0.072,4.188,0.264c1.365,0.167,2.801,0.431,4.285,0.79c-0.239,0.263-0.431,0.574-0.598,0.885
				C149.579,33.03,149.461,33.412,149.363,33.796z"/>
			<path fill-rule="evenodd" clip-rule="evenodd" d="M120.931,30.995c0.551,1.125,1.653,2.874,3.304,5.193
				c1.65,2.3,3.734,5.051,6.223,8.21c-0.36-0.048-0.72-0.048-1.077-0.072c-0.385,0-0.768-0.024-1.198-0.024
				c-0.405,0-0.813,0.024-1.172,0.024c-0.358,0.024-0.719,0.024-1.053,0.072c-0.598-1.172-1.63-2.8-3.063-4.954l-0.407-0.598
				l-3.783-5.649l-3.444,5.002c-0.909,1.316-1.651,2.467-2.25,3.447c-0.575,1.006-1.077,1.914-1.46,2.752l-0.096-0.023
				c-0.67-0.049-1.195-0.073-1.532-0.073c-0.215,0-0.407,0.024-0.621,0.024c-0.218,0-0.55,0.024-0.982,0.072
				c2.129-2.514,4.021-4.906,5.695-7.18c1.7-2.274,3.087-4.356,4.189-6.224c0.239,0.025,0.479,0.048,0.693,0.048
				c0.216,0.024,0.433,0.048,0.647,0.048c0.216,0,0.454-0.023,0.67-0.023C120.428,31.043,120.691,31.02,120.931,30.995z"/>
			<path fill-rule="evenodd" clip-rule="evenodd" d="M216.69,30.995c0.524,1.125,1.651,2.874,3.28,5.193
				c1.649,2.3,3.731,5.051,6.245,8.21c-0.358-0.048-0.716-0.048-1.1-0.072c-0.36,0-0.769-0.024-1.174-0.024
				c-0.43,0-0.813,0.024-1.172,0.024c-0.383,0.024-0.719,0.024-1.053,0.072c-0.622-1.172-1.63-2.8-3.063-4.954l-0.431-0.598
				l-3.783-5.649l-3.444,5.002c-0.886,1.316-1.63,2.467-2.227,3.447c-0.599,1.006-1.102,1.914-1.485,2.752l-0.095-0.023
				c-0.669-0.049-1.173-0.073-1.531-0.073c-0.192,0-0.408,0.024-0.623,0.024c-0.216,0-0.55,0.024-0.957,0.072
				c2.105-2.514,4.021-4.906,5.694-7.18c1.678-2.274,3.065-4.356,4.165-6.224c0.24,0.025,0.479,0.048,0.695,0.048
				c0.214,0.024,0.43,0.048,0.669,0.048c0.216,0,0.431-0.023,0.646-0.023C216.188,31.043,216.428,31.02,216.69,30.995z"/>
			<path fill-rule="evenodd" clip-rule="evenodd" d="M157.981,32.072h-2.155c-0.502,0-1.196,0.024-2.058,0.071
				c-0.862,0.049-1.889,0.121-3.137,0.217c0.073-0.119,0.097-0.24,0.119-0.335c0.023-0.121,0.05-0.242,0.05-0.36
				c0-0.143-0.026-0.264-0.05-0.36c-0.022-0.118-0.069-0.214-0.119-0.311c1.604,0.025,3.184,0.048,4.692,0.073
				c1.509,0.023,2.99,0.048,4.428,0.048c1.674,0,3.23-0.024,4.715-0.048c1.484-0.024,2.944-0.048,4.378-0.073
				c-0.047,0.192-0.093,0.335-0.093,0.433c-0.024,0.095-0.024,0.191-0.024,0.26c0,0.096,0,0.194,0.024,0.313
				c0.022,0.119,0.046,0.24,0.093,0.359c-1.243-0.096-2.296-0.168-3.183-0.217c-0.885-0.047-1.601-0.071-2.155-0.071h-1.984
				c-0.049,0.503-0.097,0.933-0.12,1.293c-0.047,0.358-0.047,0.67-0.047,0.958c0,2.609,0.024,4.714,0.118,6.366
				c0.074,1.651,0.169,2.896,0.337,3.71c-0.288-0.048-0.6-0.072-0.933-0.072c-0.337-0.024-0.696-0.024-1.126-0.024
				c-0.406,0-0.79,0-1.101,0.024c-0.337,0-0.646,0.024-0.958,0.072c0.166-0.885,0.265-2.011,0.335-3.375
				c0.07-1.387,0.094-3.11,0.094-5.194c0-0.933,0-1.675-0.023-2.201C158.075,33.078,158.028,32.575,157.981,32.072z"/>
			<path fill-rule="evenodd" clip-rule="evenodd" d="M170.714,44.398c0.143-1.005,0.239-2.059,0.312-3.182
				c0.094-1.102,0.118-2.275,0.118-3.496c0-1.411-0.024-2.658-0.118-3.733c-0.072-1.101-0.169-2.105-0.312-2.992
				c0.357,0.025,0.718,0.048,1.078,0.073c0.333,0,0.669,0.023,1.003,0.023c0.335,0,0.671-0.023,1.006-0.023
				c0.359-0.024,0.719-0.048,1.102-0.073c-0.12,0.838-0.239,1.772-0.288,2.801c-0.073,1.053-0.119,2.346-0.119,3.925
				c0,1.364,0.046,2.609,0.119,3.686c0.049,1.078,0.168,2.082,0.288,2.992c-0.288-0.048-0.598-0.072-0.935-0.072
				c-0.333-0.024-0.718-0.024-1.173-0.024c-0.431,0-0.814,0-1.148,0.024C171.287,44.326,171,44.351,170.714,44.398z"/>
			<path fill-rule="evenodd" clip-rule="evenodd" d="M185.193,44.398c-0.551-1.148-1.65-2.873-3.305-5.217
				c-1.649-2.299-3.707-5.027-6.221-8.187c0.359,0.025,0.718,0.025,1.101,0.048c0.359,0,0.741,0.024,1.174,0.024
				c0.431,0,0.813-0.024,1.172-0.024c0.382-0.023,0.718-0.023,1.053-0.048c0.624,1.148,1.626,2.776,3.065,4.931l0.405,0.6
				l3.806,5.648l3.424-5.004c0.909-1.292,1.65-2.441,2.249-3.447c0.598-1.004,1.076-1.915,1.483-2.728h0.072
				c0.693,0.048,1.195,0.073,1.557,0.073c0.19,0,0.407,0,0.619-0.024c0.217,0,0.529-0.023,0.961-0.048
				c-2.107,2.49-4.021,4.883-5.699,7.157c-1.673,2.273-3.063,4.357-4.188,6.246c-0.238-0.048-0.457-0.072-0.668-0.072
				c-0.216-0.024-0.457-0.024-0.673-0.024c-0.215,0-0.429,0-0.671,0.024C185.697,44.326,185.456,44.351,185.193,44.398z"/>
			<path fill-rule="evenodd" clip-rule="evenodd" d="M198.979,44.398c0.144-1.005,0.24-2.059,0.312-3.182
				c0.072-1.102,0.119-2.275,0.119-3.496c0-1.411-0.047-2.658-0.119-3.733c-0.071-1.101-0.168-2.105-0.312-2.992
				c0.359,0.025,0.718,0.048,1.076,0.073c0.336,0,0.671,0.023,1.005,0.023c0.337,0,0.67-0.023,1.007-0.023
				c0.333-0.024,0.718-0.048,1.101-0.073c-0.12,0.838-0.24,1.772-0.311,2.801c-0.072,1.053-0.096,2.346-0.096,3.925
				c0,1.364,0.023,2.609,0.096,3.686c0.07,1.078,0.19,2.082,0.311,2.992c-0.287-0.048-0.599-0.072-0.934-0.072
				c-0.335-0.024-0.743-0.024-1.174-0.024c-0.429,0-0.813,0-1.146,0.024C199.555,44.326,199.242,44.351,198.979,44.398z"/>
		</g>
		<path fill-rule="evenodd" clip-rule="evenodd" fill="#00ADEE" d="M84.502,19.436c-10.075,0-18.308,8.233-18.308,18.285
			c0,10.053,8.232,18.287,18.308,18.287c10.079,0,18.286-8.234,18.286-18.287C102.788,27.669,94.581,19.436,84.502,19.436z
			 M75.362,40.761c-0.647,1.101-1.2,2.083-1.607,2.992l-0.094-0.024c-0.741-0.047-1.317-0.07-1.675-0.07
			c-0.215,0-0.456,0-0.696,0.023c-0.214,0-0.573,0.023-1.053,0.071c2.322-2.729,4.38-5.338,6.199-7.802
			c1.845-2.49,3.351-4.74,4.549-6.798c0.263,0.024,0.525,0.07,0.764,0.07c0.242,0.025,0.48,0.025,0.72,0.025
			c0.24,0,0.479,0,0.719-0.025c0.238,0,0.502-0.023,0.79-0.07c0.598,1.245,1.792,3.136,3.588,5.672
			c0.647,0.908,1.317,1.866,2.107,2.896h-4.02l-4.119-6.151l-3.733,5.457C76.82,38.439,76.005,39.684,75.362,40.761z M92.544,39.492
			c-1.843,2.489-3.352,4.738-4.547,6.797c-0.262-0.023-0.524-0.07-0.767-0.07c-0.238-0.023-0.453-0.023-0.693-0.023
			c-0.239,0-0.478,0-0.742,0.023c-0.239,0-0.502,0.023-0.766,0.07c-0.599-1.244-1.818-3.136-3.589-5.672
			c-0.67-0.909-1.343-1.865-2.108-2.896h3.998l4.114,6.152l3.735-5.458c1.008-1.412,1.795-2.657,2.466-3.733
			c0.622-1.101,1.174-2.083,1.604-2.994l0.096,0.025c0.741,0.049,1.295,0.071,1.65,0.071c0.241,0,0.457,0,0.693-0.022
			c0.239,0,0.601-0.024,1.056-0.074C96.447,34.418,94.363,37.026,92.544,39.492z"/>
	</g>
</g>
</svg>
