<?xml version="1.0" encoding="utf-8"?>
<!-- Generator: Adobe Illustrator 19.0.0, SVG Export Plug-In . SVG Version: 6.00 Build 0)  -->
<svg version="1.1" id="Layer_1" xmlns="http://www.w3.org/2000/svg" xmlns:xlink="http://www.w3.org/1999/xlink" x="0px" y="0px"
	 viewBox="457.4 -9.5 110.2 142" style="enable-background:new 457.4 -9.5 110.2 142;" xml:space="preserve">
<style type="text/css">
	.st0{opacity:0.43;enable-background:new    ;}
	.st1{opacity:0.84;clip-path:url(#SVGID_2_);}
	.st2{fill:#FFFFFF;}
	.st3{fill:#A1A1A0;}
	.st4{opacity:0.84;clip-path:url(#SVGID_4_);}
</style>
<g id="XMLID_2_" class="st0">
	<g>
		<defs>
			<rect id="SVGID_1_" x="457.4" y="-9.5" width="110.2" height="142"/>
		</defs>
		<clipPath id="SVGID_2_">
			<use xlink:href="#SVGID_1_"  style="overflow:visible;"/>
		</clipPath>
		<g id="XMLID_4_" class="st1">
			<rect id="XMLID_137_" x="453.8" y="-15.7" class="st2" width="727.5" height="875.5"/>
			<g id="XMLID_71_">
				<polygon id="XMLID_136_" class="st3" points="775.7,-15.7 781.8,-7.3 781.8,-3.8 773.2,-15.7 				"/>
				<polygon id="XMLID_135_" class="st3" points="765.6,-15.7 781.8,6.5 781.8,9.9 763.1,-15.7 				"/>
				<polygon id="XMLID_134_" class="st3" points="755.6,-15.7 781.8,20.2 781.8,23.6 753.1,-15.7 				"/>
				<polygon id="XMLID_133_" class="st3" points="745.6,-15.7 781.8,33.9 781.8,37.4 743.1,-15.7 				"/>
				<polygon id="XMLID_132_" class="st3" points="735.6,-15.7 781.8,47.6 781.8,51.1 733.1,-15.7 				"/>
				<polygon id="XMLID_131_" class="st3" points="725.5,-15.7 781.8,61.4 781.8,64.8 723.1,-15.7 				"/>
				<polygon id="XMLID_130_" class="st3" points="715.6,-15.7 781.8,75.1 781.8,78.5 713,-15.7 				"/>
				<polygon id="XMLID_129_" class="st3" points="705.5,-15.7 781.8,88.8 781.8,92.3 703,-15.7 				"/>
				<polygon id="XMLID_128_" class="st3" points="695.5,-15.7 781.8,102.6 781.8,106 693,-15.7 				"/>
				<polygon id="XMLID_127_" class="st3" points="685.5,-15.7 781.8,116.3 781.8,119.7 683,-15.7 				"/>
				<polygon id="XMLID_126_" class="st3" points="675.5,-15.7 781.8,130 781.8,133.4 672.9,-15.7 				"/>
				<polygon id="XMLID_125_" class="st3" points="665.5,-15.7 781.8,143.7 781.8,147.2 663,-15.7 				"/>
				<polygon id="XMLID_124_" class="st3" points="655.4,-15.7 781.8,157.5 781.8,160.9 652.9,-15.7 				"/>
				<polygon id="XMLID_123_" class="st3" points="645.4,-15.7 781.8,171.2 781.8,174.6 642.9,-15.7 				"/>
				<polygon id="XMLID_122_" class="st3" points="635.4,-15.7 781.8,184.9 781.8,188.4 632.9,-15.7 				"/>
				<polygon id="XMLID_121_" class="st3" points="625.4,-15.7 781.8,198.6 781.8,202.1 622.9,-15.7 				"/>
				<polygon id="XMLID_120_" class="st3" points="615.3,-15.7 781.8,212.4 781.8,215.8 612.8,-15.7 				"/>
				<polygon id="XMLID_119_" class="st3" points="605.4,-15.7 781.8,226.1 781.8,229.5 602.8,-15.7 				"/>
				<polygon id="XMLID_118_" class="st3" points="595.3,-15.7 781.8,239.9 781.8,243.3 592.8,-15.7 				"/>
				<polygon id="XMLID_117_" class="st3" points="585.3,-15.7 781.8,253.6 781.8,257 582.8,-15.7 				"/>
				<polygon id="XMLID_116_" class="st3" points="575.3,-15.7 781.8,267.3 781.8,270.7 572.8,-15.7 				"/>
				<polygon id="XMLID_115_" class="st3" points="565.3,-15.7 781.8,281 781.8,284.5 562.7,-15.7 				"/>
				<polygon id="XMLID_114_" class="st3" points="555.3,-15.7 781.8,294.8 781.8,298.2 552.8,-15.7 				"/>
				<polygon id="XMLID_113_" class="st3" points="545.2,-15.7 781.8,308.5 781.8,311.9 542.7,-15.7 				"/>
				<polygon id="XMLID_112_" class="st3" points="535.2,-15.7 781.8,322.2 781.8,325.7 532.7,-15.7 				"/>
				<polygon id="XMLID_111_" class="st3" points="525.2,-15.7 781.8,335.9 781.8,339.3 522.7,-15.7 				"/>
				<polygon id="XMLID_110_" class="st3" points="515.2,-15.7 781.8,349.6 781.8,353.1 512.7,-15.7 				"/>
				<polygon id="XMLID_109_" class="st3" points="505.1,-15.7 781.8,363.4 781.8,366.8 502.6,-15.7 				"/>
				<polygon id="XMLID_108_" class="st3" points="495.1,-15.7 781.8,377.1 781.8,380.5 492.6,-15.7 				"/>
				<polygon id="XMLID_107_" class="st3" points="485.1,-15.7 781.8,390.8 781.8,394.3 482.6,-15.7 				"/>
				<polygon id="XMLID_106_" class="st3" points="475.1,-15.7 781.8,404.6 781.8,408 472.6,-15.7 				"/>
				<polygon id="XMLID_105_" class="st3" points="465.1,-15.7 781.8,418.3 781.8,421.7 462.6,-15.7 				"/>
				<polygon id="XMLID_104_" class="st3" points="453.8,-15.7 455.1,-15.7 781.8,432 781.8,433.7 780.6,433.7 453.8,-14 				"/>
				<polygon id="XMLID_103_" class="st3" points="770.6,433.7 453.8,-0.3 453.8,-3.7 773,433.7 				"/>
				<polygon id="XMLID_102_" class="st3" points="760.6,433.7 453.8,13.4 453.8,10 763.1,433.7 				"/>
				<polygon id="XMLID_101_" class="st3" points="750.5,433.7 453.8,27.2 453.8,23.7 753,433.7 				"/>
				<polygon id="XMLID_100_" class="st3" points="740.5,433.7 453.8,40.9 453.8,37.4 743,433.7 				"/>
				<polygon id="XMLID_99_" class="st3" points="730.5,433.7 453.8,54.6 453.8,51.2 733,433.7 				"/>
				<polygon id="XMLID_98_" class="st3" points="720.5,433.7 453.8,68.3 453.8,64.9 723,433.7 				"/>
				<polygon id="XMLID_97_" class="st3" points="710.5,433.7 453.8,82.1 453.8,78.6 713,433.7 				"/>
				<polygon id="XMLID_96_" class="st3" points="700.4,433.7 453.8,95.8 453.8,92.4 702.9,433.7 				"/>
				<polygon id="XMLID_95_" class="st3" points="690.4,433.7 453.8,109.5 453.8,106.1 692.9,433.7 				"/>
				<polygon id="XMLID_94_" class="st3" points="680.4,433.7 453.8,123.2 453.8,119.8 682.9,433.7 				"/>
				<polygon id="XMLID_93_" class="st3" points="670.4,433.7 453.8,137 453.8,133.6 672.9,433.7 				"/>
				<polygon id="XMLID_92_" class="st3" points="660.3,433.7 453.8,150.7 453.8,147.3 662.9,433.7 				"/>
				<polygon id="XMLID_91_" class="st3" points="650.4,433.7 453.8,164.4 453.8,161 652.9,433.7 				"/>
				<polygon id="XMLID_90_" class="st3" points="640.3,433.7 453.8,178.2 453.8,174.7 642.8,433.7 				"/>
				<polygon id="XMLID_89_" class="st3" points="630.3,433.7 453.8,191.9 453.8,188.5 632.8,433.7 				"/>
				<polygon id="XMLID_88_" class="st3" points="620.3,433.7 453.8,205.6 453.8,202.2 622.8,433.7 				"/>
				<polygon id="XMLID_87_" class="st3" points="610.3,433.7 453.8,219.4 453.8,215.9 612.8,433.7 				"/>
				<polygon id="XMLID_86_" class="st3" points="600.3,433.7 453.8,233.1 453.8,229.6 602.8,433.7 				"/>
				<polygon id="XMLID_85_" class="st3" points="590.2,433.7 453.8,246.8 453.8,243.4 592.7,433.7 				"/>
				<polygon id="XMLID_84_" class="st3" points="580.2,433.7 453.8,260.6 453.8,257.1 582.7,433.7 				"/>
				<polygon id="XMLID_83_" class="st3" points="570.2,433.7 453.8,274.2 453.8,270.8 572.7,433.7 				"/>
				<polygon id="XMLID_82_" class="st3" points="560.2,433.7 453.8,288 453.8,284.5 562.7,433.7 				"/>
				<polygon id="XMLID_81_" class="st3" points="550.1,433.7 453.8,301.7 453.8,298.3 552.7,433.7 				"/>
				<polygon id="XMLID_80_" class="st3" points="540.2,433.7 453.8,315.4 453.8,312 542.7,433.7 				"/>
				<polygon id="XMLID_79_" class="st3" points="530.1,433.7 453.8,329.2 453.8,325.7 532.6,433.7 				"/>
				<polygon id="XMLID_78_" class="st3" points="520.1,433.7 453.8,342.9 453.8,339.5 522.6,433.7 				"/>
				<polygon id="XMLID_77_" class="st3" points="510.1,433.7 453.8,356.6 453.8,353.2 512.6,433.7 				"/>
				<polygon id="XMLID_76_" class="st3" points="500.1,433.7 453.8,370.4 453.8,367 502.6,433.7 				"/>
				<polygon id="XMLID_75_" class="st3" points="490.1,433.7 453.8,384.1 453.8,380.7 492.5,433.7 				"/>
				<polygon id="XMLID_74_" class="st3" points="480,433.7 453.8,397.8 453.8,394.4 482.5,433.7 				"/>
				<polygon id="XMLID_73_" class="st3" points="470,433.7 453.8,411.5 453.8,408.1 472.5,433.7 				"/>
				<polygon id="XMLID_72_" class="st3" points="460,433.7 453.8,425.3 453.8,421.8 462.5,433.7 				"/>
			</g>
			<g id="XMLID_5_">
				<polygon id="XMLID_70_" class="st3" points="1103.7,-19.2 1109.8,-10.7 1109.8,-7.3 1101.2,-19.2 				"/>
				<polygon id="XMLID_69_" class="st3" points="1093.7,-19.2 1109.8,3 1109.8,6.4 1091.1,-19.2 				"/>
				<polygon id="XMLID_68_" class="st3" points="1083.7,-19.2 1109.8,16.7 1109.8,20.2 1081.2,-19.2 				"/>
				<polygon id="XMLID_67_" class="st3" points="1073.6,-19.2 1109.8,30.5 1109.8,33.9 1071.1,-19.2 				"/>
				<polygon id="XMLID_66_" class="st3" points="1063.6,-19.2 1109.8,44.2 1109.8,47.6 1061.1,-19.2 				"/>
				<polygon id="XMLID_65_" class="st3" points="1053.6,-19.2 1109.8,57.9 1109.8,61.3 1051.1,-19.2 				"/>
				<polygon id="XMLID_64_" class="st3" points="1043.6,-19.2 1109.8,71.6 1109.8,75.1 1041.1,-19.2 				"/>
				<polygon id="XMLID_63_" class="st3" points="1033.5,-19.2 1109.8,85.4 1109.8,88.8 1031,-19.2 				"/>
				<polygon id="XMLID_62_" class="st3" points="1023.5,-19.2 1109.8,99.1 1109.8,102.5 1021,-19.2 				"/>
				<polygon id="XMLID_61_" class="st3" points="1013.5,-19.2 1109.8,112.8 1109.8,116.3 1011,-19.2 				"/>
				<polygon id="XMLID_60_" class="st3" points="1003.5,-19.2 1109.8,126.5 1109.8,130 1001,-19.2 				"/>
				<polygon id="XMLID_59_" class="st3" points="993.5,-19.2 1109.8,140.3 1109.8,143.7 991,-19.2 				"/>
				<polygon id="XMLID_58_" class="st3" points="983.4,-19.2 1109.8,154 1109.8,157.4 980.9,-19.2 				"/>
				<polygon id="XMLID_57_" class="st3" points="973.4,-19.2 1109.8,167.7 1109.8,171.2 971,-19.2 				"/>
				<polygon id="XMLID_56_" class="st3" points="963.4,-19.2 1109.8,181.4 1109.8,184.9 960.9,-19.2 				"/>
				<polygon id="XMLID_55_" class="st3" points="953.4,-19.2 1109.8,195.2 1109.8,198.6 950.9,-19.2 				"/>
				<polygon id="XMLID_54_" class="st3" points="943.4,-19.2 1109.8,208.9 1109.8,212.3 940.8,-19.2 				"/>
				<polygon id="XMLID_53_" class="st3" points="933.4,-19.2 1109.8,222.6 1109.8,226.1 930.9,-19.2 				"/>
				<polygon id="XMLID_52_" class="st3" points="923.3,-19.2 1109.8,236.4 1109.8,239.8 920.8,-19.2 				"/>
				<polygon id="XMLID_51_" class="st3" points="913.4,-19.2 1109.8,250.1 1109.8,253.5 910.8,-19.2 				"/>
				<polygon id="XMLID_50_" class="st3" points="903.3,-19.2 1109.8,263.8 1109.8,267.3 900.8,-19.2 				"/>
				<polygon id="XMLID_49_" class="st3" points="893.3,-19.2 1109.8,277.6 1109.8,281 890.8,-19.2 				"/>
				<polygon id="XMLID_48_" class="st3" points="883.3,-19.2 1109.8,291.3 1109.8,294.7 880.8,-19.2 				"/>
				<polygon id="XMLID_47_" class="st3" points="873.3,-19.2 1109.8,305 1109.8,308.5 870.8,-19.2 				"/>
				<polygon id="XMLID_46_" class="st3" points="863.2,-19.2 1109.8,318.7 1109.8,322.2 860.8,-19.2 				"/>
				<polygon id="XMLID_45_" class="st3" points="853.2,-19.2 1109.8,332.5 1109.8,335.9 850.7,-19.2 				"/>
				<polygon id="XMLID_44_" class="st3" points="843.2,-19.2 1109.8,346.2 1109.8,349.6 840.7,-19.2 				"/>
				<polygon id="XMLID_43_" class="st3" points="833.2,-19.2 1109.8,359.9 1109.8,363.3 830.7,-19.2 				"/>
				<polygon id="XMLID_42_" class="st3" points="823.2,-19.2 1109.8,373.6 1109.8,377.1 820.7,-19.2 				"/>
				<polygon id="XMLID_41_" class="st3" points="813.1,-19.2 1109.8,387.4 1109.8,390.8 810.6,-19.2 				"/>
				<polygon id="XMLID_40_" class="st3" points="803.2,-19.2 1109.8,401.1 1109.8,404.5 800.6,-19.2 				"/>
				<polygon id="XMLID_39_" class="st3" points="793.1,-19.2 1109.8,414.8 1109.8,418.3 790.6,-19.2 				"/>
				<polygon id="XMLID_38_" class="st3" points="781.8,-19.2 783.1,-19.2 1109.8,428.5 1109.8,430.3 1108.6,430.3 781.8,-17.5 				
					"/>
				<polygon id="XMLID_37_" class="st3" points="1098.6,430.3 781.8,-3.8 781.8,-7.2 1101.1,430.3 				"/>
				<polygon id="XMLID_36_" class="st3" points="1088.6,430.3 781.8,10 781.8,6.5 1091.1,430.3 				"/>
				<polygon id="XMLID_35_" class="st3" points="1078.5,430.3 781.8,23.7 781.8,20.3 1081,430.3 				"/>
				<polygon id="XMLID_34_" class="st3" points="1068.5,430.3 781.8,37.4 781.8,34 1071,430.3 				"/>
				<polygon id="XMLID_33_" class="st3" points="1058.5,430.3 781.8,51.1 781.8,47.7 1061,430.3 				"/>
				<polygon id="XMLID_32_" class="st3" points="1048.5,430.3 781.8,64.9 781.8,61.4 1051,430.3 				"/>
				<polygon id="XMLID_31_" class="st3" points="1038.5,430.3 781.8,78.6 781.8,75.2 1041,430.3 				"/>
				<polygon id="XMLID_30_" class="st3" points="1028.4,430.3 781.8,92.3 781.8,88.9 1031,430.3 				"/>
				<polygon id="XMLID_29_" class="st3" points="1018.5,430.3 781.8,106.1 781.8,102.6 1020.9,430.3 				"/>
				<polygon id="XMLID_28_" class="st3" points="1008.4,430.3 781.8,119.8 781.8,116.3 1010.9,430.3 				"/>
				<polygon id="XMLID_27_" class="st3" points="998.4,430.3 781.8,133.5 781.8,130.1 1000.9,430.3 				"/>
				<polygon id="XMLID_26_" class="st3" points="988.4,430.3 781.8,147.2 781.8,143.8 990.9,430.3 				"/>
				<polygon id="XMLID_25_" class="st3" points="978.4,430.3 781.8,161 781.8,157.5 980.9,430.3 				"/>
				<polygon id="XMLID_24_" class="st3" points="968.3,430.3 781.8,174.7 781.8,171.3 970.8,430.3 				"/>
				<polygon id="XMLID_23_" class="st3" points="958.3,430.3 781.8,188.4 781.8,185 960.9,430.3 				"/>
				<polygon id="XMLID_22_" class="st3" points="948.3,430.3 781.8,202.2 781.8,198.7 950.8,430.3 				"/>
				<polygon id="XMLID_21_" class="st3" points="938.3,430.3 781.8,215.9 781.8,212.5 940.8,430.3 				"/>
				<polygon id="XMLID_20_" class="st3" points="928.3,430.3 781.8,229.6 781.8,226.2 930.8,430.3 				"/>
				<polygon id="XMLID_19_" class="st3" points="918.3,430.3 781.8,243.3 781.8,239.9 920.8,430.3 				"/>
				<polygon id="XMLID_18_" class="st3" points="908.2,430.3 781.8,257.1 781.8,253.6 910.7,430.3 				"/>
				<polygon id="XMLID_17_" class="st3" points="898.2,430.3 781.8,270.8 781.8,267.4 900.7,430.3 				"/>
				<polygon id="XMLID_16_" class="st3" points="888.2,430.3 781.8,284.5 781.8,281.1 890.7,430.3 				"/>
				<polygon id="XMLID_15_" class="st3" points="878.2,430.3 781.8,298.2 781.8,294.8 880.7,430.3 				"/>
				<polygon id="XMLID_14_" class="st3" points="868.2,430.3 781.8,312 781.8,308.5 870.7,430.3 				"/>
				<polygon id="XMLID_13_" class="st3" points="858.1,430.3 781.8,325.7 781.8,322.3 860.7,430.3 				"/>
				<polygon id="XMLID_12_" class="st3" points="848.2,430.3 781.8,339.4 781.8,336 850.7,430.3 				"/>
				<polygon id="XMLID_11_" class="st3" points="838.1,430.3 781.8,353.2 781.8,349.7 840.6,430.3 				"/>
				<polygon id="XMLID_10_" class="st3" points="828.1,430.3 781.8,366.9 781.8,363.5 830.6,430.3 				"/>
				<polygon id="XMLID_9_" class="st3" points="818.1,430.3 781.8,380.6 781.8,377.2 820.6,430.3 				"/>
				<polygon id="XMLID_8_" class="st3" points="808.1,430.3 781.8,394.3 781.8,390.9 810.6,430.3 				"/>
				<polygon id="XMLID_7_" class="st3" points="798,430.3 781.8,408.1 781.8,404.6 800.5,430.3 				"/>
				<polygon id="XMLID_6_" class="st3" points="788,430.3 781.8,421.8 781.8,418.4 790.5,430.3 				"/>
			</g>
			<g id="XMLID_1_">
				<polygon id="XMLID_201_" class="st3" points="1431.7,-22.8 1437.8,-14.3 1437.8,-10.9 1429.2,-22.8 				"/>
				<polygon id="XMLID_200_" class="st3" points="1421.7,-22.8 1437.8,-0.6 1437.8,2.8 1419.1,-22.8 				"/>
				<polygon id="XMLID_199_" class="st3" points="1411.7,-22.8 1437.8,13.1 1437.8,16.6 1409.2,-22.8 				"/>
				<polygon id="XMLID_198_" class="st3" points="1401.6,-22.8 1437.8,26.9 1437.8,30.3 1399.1,-22.8 				"/>
				<polygon id="XMLID_197_" class="st3" points="1391.6,-22.8 1437.8,40.6 1437.8,44 1389.1,-22.8 				"/>
				<polygon id="XMLID_196_" class="st3" points="1381.6,-22.8 1437.8,54.3 1437.8,57.7 1379.1,-22.8 				"/>
				<polygon id="XMLID_195_" class="st3" points="1371.6,-22.8 1437.8,68 1437.8,71.5 1369.1,-22.8 				"/>
				<polygon id="XMLID_194_" class="st3" points="1361.5,-22.8 1437.8,81.8 1437.8,85.2 1359,-22.8 				"/>
				<polygon id="XMLID_193_" class="st3" points="1351.5,-22.8 1437.8,95.5 1437.8,98.9 1349,-22.8 				"/>
				<polygon id="XMLID_192_" class="st3" points="1341.5,-22.8 1437.8,109.2 1437.8,112.7 1339,-22.8 				"/>
				<polygon id="XMLID_191_" class="st3" points="1331.5,-22.8 1437.8,122.9 1437.8,126.4 1329,-22.8 				"/>
				<polygon id="XMLID_190_" class="st3" points="1321.5,-22.8 1437.8,136.7 1437.8,140.1 1319,-22.8 				"/>
				<polygon id="XMLID_189_" class="st3" points="1311.4,-22.8 1437.8,150.4 1437.8,153.8 1308.9,-22.8 				"/>
				<polygon id="XMLID_188_" class="st3" points="1301.4,-22.8 1437.8,164.1 1437.8,167.6 1299,-22.8 				"/>
				<polygon id="XMLID_187_" class="st3" points="1291.4,-22.8 1437.8,177.8 1437.8,181.3 1288.9,-22.8 				"/>
				<polygon id="XMLID_186_" class="st3" points="1281.4,-22.8 1437.8,191.6 1437.8,195 1278.9,-22.8 				"/>
				<polygon id="XMLID_185_" class="st3" points="1271.4,-22.8 1437.8,205.3 1437.8,208.7 1268.8,-22.8 				"/>
				<polygon id="XMLID_184_" class="st3" points="1261.4,-22.8 1437.8,219 1437.8,222.5 1258.9,-22.8 				"/>
				<polygon id="XMLID_183_" class="st3" points="1251.3,-22.8 1437.8,232.8 1437.8,236.2 1248.8,-22.8 				"/>
				<polygon id="XMLID_182_" class="st3" points="1241.4,-22.8 1437.8,246.5 1437.8,249.9 1238.8,-22.8 				"/>
				<polygon id="XMLID_181_" class="st3" points="1231.3,-22.8 1437.8,260.2 1437.8,263.7 1228.8,-22.8 				"/>
				<polygon id="XMLID_180_" class="st3" points="1221.3,-22.8 1437.8,274 1437.8,277.4 1218.8,-22.8 				"/>
				<polygon id="XMLID_179_" class="st3" points="1211.3,-22.8 1437.8,287.7 1437.8,291.1 1208.8,-22.8 				"/>
				<polygon id="XMLID_178_" class="st3" points="1201.3,-22.8 1437.8,301.4 1437.8,304.9 1198.8,-22.8 				"/>
				<polygon id="XMLID_177_" class="st3" points="1191.2,-22.8 1437.8,315.1 1437.8,318.6 1188.7,-22.8 				"/>
				<polygon id="XMLID_176_" class="st3" points="1181.2,-22.8 1437.8,328.9 1437.8,332.3 1178.7,-22.8 				"/>
				<polygon id="XMLID_175_" class="st3" points="1171.2,-22.8 1437.8,342.6 1437.8,346 1168.7,-22.8 				"/>
				<polygon id="XMLID_174_" class="st3" points="1161.2,-22.8 1437.8,356.3 1437.8,359.7 1158.7,-22.8 				"/>
				<polygon id="XMLID_173_" class="st3" points="1151.2,-22.8 1437.8,370 1437.8,373.5 1148.7,-22.8 				"/>
				<polygon id="XMLID_172_" class="st3" points="1141.1,-22.8 1437.8,383.8 1437.8,387.2 1138.6,-22.8 				"/>
				<polygon id="XMLID_171_" class="st3" points="1131.2,-22.8 1437.8,397.5 1437.8,400.9 1128.6,-22.8 				"/>
				<polygon id="XMLID_170_" class="st3" points="1121.1,-22.8 1437.8,411.2 1437.8,414.7 1118.6,-22.8 				"/>
				<polygon id="XMLID_169_" class="st3" points="1109.8,-22.8 1111.1,-22.8 1437.8,424.9 1437.8,426.7 1436.6,426.7 1109.8,-21.1 
									"/>
				<polygon id="XMLID_168_" class="st3" points="1426.6,426.7 1109.8,-7.4 1109.8,-10.8 1429.1,426.7 				"/>
				<polygon id="XMLID_167_" class="st3" points="1416.6,426.7 1109.8,6.4 1109.8,2.9 1419.1,426.7 				"/>
				<polygon id="XMLID_166_" class="st3" points="1406.5,426.7 1109.8,20.1 1109.8,16.7 1409,426.7 				"/>
				<polygon id="XMLID_165_" class="st3" points="1396.5,426.7 1109.8,33.8 1109.8,30.4 1399,426.7 				"/>
				<polygon id="XMLID_164_" class="st3" points="1386.5,426.7 1109.8,47.5 1109.8,44.1 1389,426.7 				"/>
				<polygon id="XMLID_163_" class="st3" points="1376.5,426.7 1109.8,61.3 1109.8,57.8 1379,426.7 				"/>
				<polygon id="XMLID_162_" class="st3" points="1366.5,426.7 1109.8,75 1109.8,71.6 1369,426.7 				"/>
				<polygon id="XMLID_161_" class="st3" points="1356.4,426.7 1109.8,88.7 1109.8,85.3 1359,426.7 				"/>
				<polygon id="XMLID_160_" class="st3" points="1346.5,426.7 1109.8,102.5 1109.8,99 1348.9,426.7 				"/>
				<polygon id="XMLID_159_" class="st3" points="1336.4,426.7 1109.8,116.2 1109.8,112.7 1338.9,426.7 				"/>
				<polygon id="XMLID_158_" class="st3" points="1326.4,426.7 1109.8,129.9 1109.8,126.5 1328.9,426.7 				"/>
				<polygon id="XMLID_157_" class="st3" points="1316.4,426.7 1109.8,143.6 1109.8,140.2 1318.9,426.7 				"/>
				<polygon id="XMLID_156_" class="st3" points="1306.4,426.7 1109.8,157.4 1109.8,153.9 1308.9,426.7 				"/>
				<polygon id="XMLID_155_" class="st3" points="1296.3,426.7 1109.8,171.1 1109.8,167.7 1298.8,426.7 				"/>
				<polygon id="XMLID_154_" class="st3" points="1286.3,426.7 1109.8,184.8 1109.8,181.4 1288.9,426.7 				"/>
				<polygon id="XMLID_153_" class="st3" points="1276.3,426.7 1109.8,198.6 1109.8,195.1 1278.8,426.7 				"/>
				<polygon id="XMLID_152_" class="st3" points="1266.3,426.7 1109.8,212.3 1109.8,208.9 1268.8,426.7 				"/>
				<polygon id="XMLID_151_" class="st3" points="1256.3,426.7 1109.8,226 1109.8,222.6 1258.8,426.7 				"/>
				<polygon id="XMLID_150_" class="st3" points="1246.3,426.7 1109.8,239.7 1109.8,236.3 1248.8,426.7 				"/>
				<polygon id="XMLID_149_" class="st3" points="1236.2,426.7 1109.8,253.5 1109.8,250 1238.7,426.7 				"/>
				<polygon id="XMLID_148_" class="st3" points="1226.2,426.7 1109.8,267.2 1109.8,263.8 1228.7,426.7 				"/>
				<polygon id="XMLID_147_" class="st3" points="1216.2,426.7 1109.8,280.9 1109.8,277.5 1218.7,426.7 				"/>
				<polygon id="XMLID_146_" class="st3" points="1206.2,426.7 1109.8,294.6 1109.8,291.2 1208.7,426.7 				"/>
				<polygon id="XMLID_145_" class="st3" points="1196.2,426.7 1109.8,308.4 1109.8,304.9 1198.7,426.7 				"/>
				<polygon id="XMLID_144_" class="st3" points="1186.1,426.7 1109.8,322.1 1109.8,318.7 1188.7,426.7 				"/>
				<polygon id="XMLID_143_" class="st3" points="1176.2,426.7 1109.8,335.8 1109.8,332.4 1178.7,426.7 				"/>
				<polygon id="XMLID_142_" class="st3" points="1166.1,426.7 1109.8,349.6 1109.8,346.1 1168.6,426.7 				"/>
				<polygon id="XMLID_141_" class="st3" points="1156.1,426.7 1109.8,363.3 1109.8,359.9 1158.6,426.7 				"/>
				<polygon id="XMLID_140_" class="st3" points="1146.1,426.7 1109.8,377 1109.8,373.6 1148.6,426.7 				"/>
				<polygon id="XMLID_139_" class="st3" points="1136.1,426.7 1109.8,390.7 1109.8,387.3 1138.6,426.7 				"/>
				<polygon id="XMLID_138_" class="st3" points="1126,426.7 1109.8,404.5 1109.8,401 1128.5,426.7 				"/>
				<polygon id="XMLID_3_" class="st3" points="1116,426.7 1109.8,418.2 1109.8,414.8 1118.5,426.7 				"/>
			</g>
			<g id="XMLID_202_">
				<polygon id="XMLID_267_" class="st3" points="1759.7,-26.3 1765.8,-17.8 1765.8,-14.4 1757.2,-26.3 				"/>
				<polygon id="XMLID_266_" class="st3" points="1749.7,-26.3 1765.8,-4.1 1765.8,-0.7 1747.1,-26.3 				"/>
				<polygon id="XMLID_265_" class="st3" points="1739.7,-26.3 1765.8,9.6 1765.8,13.1 1737.2,-26.3 				"/>
				<polygon id="XMLID_264_" class="st3" points="1729.6,-26.3 1765.8,23.4 1765.8,26.8 1727.1,-26.3 				"/>
				<polygon id="XMLID_263_" class="st3" points="1719.6,-26.3 1765.8,37.1 1765.8,40.5 1717.1,-26.3 				"/>
				<polygon id="XMLID_262_" class="st3" points="1709.6,-26.3 1765.8,50.8 1765.8,54.2 1707.1,-26.3 				"/>
				<polygon id="XMLID_261_" class="st3" points="1699.6,-26.3 1765.8,64.5 1765.8,68 1697.1,-26.3 				"/>
				<polygon id="XMLID_260_" class="st3" points="1689.5,-26.3 1765.8,78.3 1765.8,81.7 1687,-26.3 				"/>
				<polygon id="XMLID_259_" class="st3" points="1679.5,-26.3 1765.8,92 1765.8,95.4 1677,-26.3 				"/>
				<polygon id="XMLID_258_" class="st3" points="1669.5,-26.3 1765.8,105.7 1765.8,109.2 1667,-26.3 				"/>
				<polygon id="XMLID_257_" class="st3" points="1659.5,-26.3 1765.8,119.4 1765.8,122.9 1657,-26.3 				"/>
				<polygon id="XMLID_256_" class="st3" points="1649.5,-26.3 1765.8,133.2 1765.8,136.6 1647,-26.3 				"/>
				<polygon id="XMLID_255_" class="st3" points="1639.4,-26.3 1765.8,146.9 1765.8,150.3 1636.9,-26.3 				"/>
				<polygon id="XMLID_254_" class="st3" points="1629.4,-26.3 1765.8,160.6 1765.8,164.1 1627,-26.3 				"/>
				<polygon id="XMLID_253_" class="st3" points="1619.4,-26.3 1765.8,174.3 1765.8,177.8 1616.9,-26.3 				"/>
				<polygon id="XMLID_252_" class="st3" points="1609.4,-26.3 1765.8,188.1 1765.8,191.5 1606.9,-26.3 				"/>
				<polygon id="XMLID_251_" class="st3" points="1599.4,-26.3 1765.8,201.8 1765.8,205.2 1596.8,-26.3 				"/>
				<polygon id="XMLID_250_" class="st3" points="1589.4,-26.3 1765.8,215.5 1765.8,219 1586.9,-26.3 				"/>
				<polygon id="XMLID_249_" class="st3" points="1579.3,-26.3 1765.8,229.3 1765.8,232.7 1576.8,-26.3 				"/>
				<polygon id="XMLID_248_" class="st3" points="1569.4,-26.3 1765.8,243 1765.8,246.4 1566.8,-26.3 				"/>
				<polygon id="XMLID_247_" class="st3" points="1559.3,-26.3 1765.8,256.7 1765.8,260.2 1556.8,-26.3 				"/>
				<polygon id="XMLID_246_" class="st3" points="1549.3,-26.3 1765.8,270.5 1765.8,273.9 1546.8,-26.3 				"/>
				<polygon id="XMLID_245_" class="st3" points="1539.3,-26.3 1765.8,284.2 1765.8,287.6 1536.8,-26.3 				"/>
				<polygon id="XMLID_244_" class="st3" points="1529.3,-26.3 1765.8,297.9 1765.8,301.4 1526.8,-26.3 				"/>
				<polygon id="XMLID_243_" class="st3" points="1519.2,-26.3 1765.8,311.6 1765.8,315.1 1516.7,-26.3 				"/>
				<polygon id="XMLID_242_" class="st3" points="1509.2,-26.3 1765.8,325.4 1765.8,328.8 1506.7,-26.3 				"/>
				<polygon id="XMLID_241_" class="st3" points="1499.2,-26.3 1765.8,339.1 1765.8,342.5 1496.7,-26.3 				"/>
				<polygon id="XMLID_240_" class="st3" points="1489.2,-26.3 1765.8,352.8 1765.8,356.2 1486.7,-26.3 				"/>
				<polygon id="XMLID_239_" class="st3" points="1479.2,-26.3 1765.8,366.5 1765.8,370 1476.7,-26.3 				"/>
				<polygon id="XMLID_238_" class="st3" points="1469.1,-26.3 1765.8,380.3 1765.8,383.7 1466.6,-26.3 				"/>
				<polygon id="XMLID_237_" class="st3" points="1459.2,-26.3 1765.8,394 1765.8,397.4 1456.6,-26.3 				"/>
				<polygon id="XMLID_236_" class="st3" points="1449.1,-26.3 1765.8,407.7 1765.8,411.2 1446.6,-26.3 				"/>
				<polygon id="XMLID_235_" class="st3" points="1437.8,-26.3 1439.1,-26.3 1765.8,421.4 1765.8,423.2 1764.6,423.2 1437.8,-24.6 
									"/>
				<polygon id="XMLID_234_" class="st3" points="1754.6,423.2 1437.8,-10.9 1437.8,-14.3 1757.1,423.2 				"/>
				<polygon id="XMLID_233_" class="st3" points="1744.6,423.2 1437.8,2.9 1437.8,-0.6 1747.1,423.2 				"/>
				<polygon id="XMLID_232_" class="st3" points="1734.5,423.2 1437.8,16.6 1437.8,13.2 1737,423.2 				"/>
				<polygon id="XMLID_231_" class="st3" points="1724.5,423.2 1437.8,30.3 1437.8,26.9 1727,423.2 				"/>
				<polygon id="XMLID_230_" class="st3" points="1714.5,423.2 1437.8,44 1437.8,40.6 1717,423.2 				"/>
				<polygon id="XMLID_229_" class="st3" points="1704.5,423.2 1437.8,57.8 1437.8,54.3 1707,423.2 				"/>
				<polygon id="XMLID_228_" class="st3" points="1694.5,423.2 1437.8,71.5 1437.8,68.1 1697,423.2 				"/>
				<polygon id="XMLID_227_" class="st3" points="1684.4,423.2 1437.8,85.2 1437.8,81.8 1687,423.2 				"/>
				<polygon id="XMLID_226_" class="st3" points="1674.5,423.2 1437.8,99 1437.8,95.5 1676.9,423.2 				"/>
				<polygon id="XMLID_225_" class="st3" points="1664.4,423.2 1437.8,112.7 1437.8,109.2 1666.9,423.2 				"/>
				<polygon id="XMLID_224_" class="st3" points="1654.4,423.2 1437.8,126.4 1437.8,123 1656.9,423.2 				"/>
				<polygon id="XMLID_223_" class="st3" points="1644.4,423.2 1437.8,140.1 1437.8,136.7 1646.9,423.2 				"/>
				<polygon id="XMLID_222_" class="st3" points="1634.4,423.2 1437.8,153.9 1437.8,150.4 1636.9,423.2 				"/>
				<polygon id="XMLID_221_" class="st3" points="1624.3,423.2 1437.8,167.6 1437.8,164.2 1626.8,423.2 				"/>
				<polygon id="XMLID_220_" class="st3" points="1614.3,423.2 1437.8,181.3 1437.8,177.9 1616.9,423.2 				"/>
				<polygon id="XMLID_219_" class="st3" points="1604.3,423.2 1437.8,195.1 1437.8,191.6 1606.8,423.2 				"/>
				<polygon id="XMLID_218_" class="st3" points="1594.3,423.2 1437.8,208.8 1437.8,205.4 1596.8,423.2 				"/>
				<polygon id="XMLID_217_" class="st3" points="1584.3,423.2 1437.8,222.5 1437.8,219.1 1586.8,423.2 				"/>
				<polygon id="XMLID_216_" class="st3" points="1574.3,423.2 1437.8,236.2 1437.8,232.8 1576.8,423.2 				"/>
				<polygon id="XMLID_215_" class="st3" points="1564.2,423.2 1437.8,250 1437.8,246.5 1566.7,423.2 				"/>
				<polygon id="XMLID_214_" class="st3" points="1554.2,423.2 1437.8,263.7 1437.8,260.3 1556.7,423.2 				"/>
				<polygon id="XMLID_213_" class="st3" points="1544.2,423.2 1437.8,277.4 1437.8,274 1546.7,423.2 				"/>
				<polygon id="XMLID_212_" class="st3" points="1534.2,423.2 1437.8,291.1 1437.8,287.7 1536.7,423.2 				"/>
				<polygon id="XMLID_211_" class="st3" points="1524.2,423.2 1437.8,304.9 1437.8,301.4 1526.7,423.2 				"/>
				<polygon id="XMLID_210_" class="st3" points="1514.1,423.2 1437.8,318.6 1437.8,315.2 1516.7,423.2 				"/>
				<polygon id="XMLID_209_" class="st3" points="1504.2,423.2 1437.8,332.3 1437.8,328.9 1506.7,423.2 				"/>
				<polygon id="XMLID_208_" class="st3" points="1494.1,423.2 1437.8,346.1 1437.8,342.6 1496.6,423.2 				"/>
				<polygon id="XMLID_207_" class="st3" points="1484.1,423.2 1437.8,359.8 1437.8,356.4 1486.6,423.2 				"/>
				<polygon id="XMLID_206_" class="st3" points="1474.1,423.2 1437.8,373.5 1437.8,370.1 1476.6,423.2 				"/>
				<polygon id="XMLID_205_" class="st3" points="1464.1,423.2 1437.8,387.2 1437.8,383.8 1466.6,423.2 				"/>
				<polygon id="XMLID_204_" class="st3" points="1454,423.2 1437.8,401 1437.8,397.5 1456.5,423.2 				"/>
				<polygon id="XMLID_203_" class="st3" points="1444,423.2 1437.8,414.7 1437.8,411.3 1446.5,423.2 				"/>
			</g>
		</g>
	</g>
</g>
<g id="XMLID_268_" class="st0">
	<g>
		<defs>
			<rect id="SVGID_3_" x="567.6" y="-9.5" width="110.2" height="142"/>
		</defs>
		<clipPath id="SVGID_4_">
			<use xlink:href="#SVGID_3_"  style="overflow:visible;"/>
		</clipPath>
		<g id="XMLID_269_" class="st4">
			<rect id="XMLID_534_" x="564" y="-15.7" class="st2" width="727.5" height="875.5"/>
			<g id="XMLID_468_">
				<polygon id="XMLID_533_" class="st3" points="885.8,-15.7 892,-7.3 892,-3.8 883.3,-15.7 				"/>
				<polygon id="XMLID_532_" class="st3" points="875.8,-15.7 892,6.5 892,9.9 873.3,-15.7 				"/>
				<polygon id="XMLID_531_" class="st3" points="865.8,-15.7 892,20.2 892,23.6 863.3,-15.7 				"/>
				<polygon id="XMLID_530_" class="st3" points="855.8,-15.7 892,33.9 892,37.4 853.3,-15.7 				"/>
				<polygon id="XMLID_529_" class="st3" points="845.8,-15.7 892,47.6 892,51.1 843.3,-15.7 				"/>
				<polygon id="XMLID_528_" class="st3" points="835.7,-15.7 892,61.4 892,64.8 833.2,-15.7 				"/>
				<polygon id="XMLID_527_" class="st3" points="825.7,-15.7 892,75.1 892,78.5 823.2,-15.7 				"/>
				<polygon id="XMLID_526_" class="st3" points="815.7,-15.7 892,88.8 892,92.3 813.2,-15.7 				"/>
				<polygon id="XMLID_525_" class="st3" points="805.7,-15.7 892,102.6 892,106 803.2,-15.7 				"/>
				<polygon id="XMLID_524_" class="st3" points="795.6,-15.7 892,116.3 892,119.7 793.1,-15.7 				"/>
				<polygon id="XMLID_523_" class="st3" points="785.7,-15.7 892,130 892,133.4 783.1,-15.7 				"/>
				<polygon id="XMLID_522_" class="st3" points="775.6,-15.7 892,143.7 892,147.2 773.1,-15.7 				"/>
				<polygon id="XMLID_521_" class="st3" points="765.6,-15.7 892,157.5 892,160.9 763.1,-15.7 				"/>
				<polygon id="XMLID_520_" class="st3" points="755.6,-15.7 892,171.2 892,174.6 753.1,-15.7 				"/>
				<polygon id="XMLID_519_" class="st3" points="745.6,-15.7 892,184.9 892,188.4 743,-15.7 				"/>
				<polygon id="XMLID_518_" class="st3" points="735.5,-15.7 892,198.6 892,202.1 733.1,-15.7 				"/>
				<polygon id="XMLID_517_" class="st3" points="725.5,-15.7 892,212.4 892,215.8 723,-15.7 				"/>
				<polygon id="XMLID_516_" class="st3" points="715.5,-15.7 892,226.1 892,229.5 713,-15.7 				"/>
				<polygon id="XMLID_515_" class="st3" points="705.5,-15.7 892,239.9 892,243.3 703,-15.7 				"/>
				<polygon id="XMLID_514_" class="st3" points="695.5,-15.7 892,253.6 892,257 693,-15.7 				"/>
				<polygon id="XMLID_513_" class="st3" points="685.4,-15.7 892,267.3 892,270.7 682.9,-15.7 				"/>
				<polygon id="XMLID_512_" class="st3" points="675.5,-15.7 892,281 892,284.5 672.9,-15.7 				"/>
				<polygon id="XMLID_511_" class="st3" points="665.4,-15.7 892,294.8 892,298.2 662.9,-15.7 				"/>
				<polygon id="XMLID_510_" class="st3" points="655.4,-15.7 892,308.5 892,311.9 652.9,-15.7 				"/>
				<polygon id="XMLID_509_" class="st3" points="645.4,-15.7 892,322.2 892,325.7 642.9,-15.7 				"/>
				<polygon id="XMLID_508_" class="st3" points="635.4,-15.7 892,335.9 892,339.3 632.9,-15.7 				"/>
				<polygon id="XMLID_507_" class="st3" points="625.3,-15.7 892,349.6 892,353.1 622.8,-15.7 				"/>
				<polygon id="XMLID_506_" class="st3" points="615.3,-15.7 892,363.4 892,366.8 612.8,-15.7 				"/>
				<polygon id="XMLID_505_" class="st3" points="605.3,-15.7 892,377.1 892,380.5 602.8,-15.7 				"/>
				<polygon id="XMLID_504_" class="st3" points="595.3,-15.7 892,390.8 892,394.3 592.8,-15.7 				"/>
				<polygon id="XMLID_503_" class="st3" points="585.3,-15.7 892,404.6 892,408 582.8,-15.7 				"/>
				<polygon id="XMLID_502_" class="st3" points="575.2,-15.7 892,418.3 892,421.7 572.7,-15.7 				"/>
				<polygon id="XMLID_501_" class="st3" points="564,-15.7 565.3,-15.7 892,432 892,433.7 890.8,433.7 564,-14 				"/>
				<polygon id="XMLID_500_" class="st3" points="880.7,433.7 564,-0.3 564,-3.7 883.2,433.7 				"/>
				<polygon id="XMLID_499_" class="st3" points="870.8,433.7 564,13.4 564,10 873.2,433.7 				"/>
				<polygon id="XMLID_498_" class="st3" points="860.7,433.7 564,27.2 564,23.7 863.2,433.7 				"/>
				<polygon id="XMLID_497_" class="st3" points="850.7,433.7 564,40.9 564,37.4 853.2,433.7 				"/>
				<polygon id="XMLID_496_" class="st3" points="840.6,433.7 564,54.6 564,51.2 843.2,433.7 				"/>
				<polygon id="XMLID_495_" class="st3" points="830.7,433.7 564,68.3 564,64.9 833.2,433.7 				"/>
				<polygon id="XMLID_494_" class="st3" points="820.6,433.7 564,82.1 564,78.6 823.1,433.7 				"/>
				<polygon id="XMLID_493_" class="st3" points="810.6,433.7 564,95.8 564,92.4 813.1,433.7 				"/>
				<polygon id="XMLID_492_" class="st3" points="800.6,433.7 564,109.5 564,106.1 803.1,433.7 				"/>
				<polygon id="XMLID_491_" class="st3" points="790.6,433.7 564,123.2 564,119.8 793.1,433.7 				"/>
				<polygon id="XMLID_490_" class="st3" points="780.6,433.7 564,137 564,133.6 783,433.7 				"/>
				<polygon id="XMLID_489_" class="st3" points="770.5,433.7 564,150.7 564,147.3 773.1,433.7 				"/>
				<polygon id="XMLID_488_" class="st3" points="760.5,433.7 564,164.4 564,161 763,433.7 				"/>
				<polygon id="XMLID_487_" class="st3" points="750.5,433.7 564,178.2 564,174.7 753,433.7 				"/>
				<polygon id="XMLID_486_" class="st3" points="740.5,433.7 564,191.9 564,188.5 743,433.7 				"/>
				<polygon id="XMLID_485_" class="st3" points="730.4,433.7 564,205.6 564,202.2 733,433.7 				"/>
				<polygon id="XMLID_484_" class="st3" points="720.5,433.7 564,219.4 564,215.9 723,433.7 				"/>
				<polygon id="XMLID_483_" class="st3" points="710.4,433.7 564,233.1 564,229.6 712.9,433.7 				"/>
				<polygon id="XMLID_482_" class="st3" points="700.4,433.7 564,246.8 564,243.4 702.9,433.7 				"/>
				<polygon id="XMLID_481_" class="st3" points="690.4,433.7 564,260.6 564,257.1 692.9,433.7 				"/>
				<polygon id="XMLID_480_" class="st3" points="680.4,433.7 564,274.2 564,270.8 682.9,433.7 				"/>
				<polygon id="XMLID_479_" class="st3" points="670.3,433.7 564,288 564,284.5 672.8,433.7 				"/>
				<polygon id="XMLID_478_" class="st3" points="660.3,433.7 564,301.7 564,298.3 662.9,433.7 				"/>
				<polygon id="XMLID_477_" class="st3" points="650.3,433.7 564,315.4 564,312 652.8,433.7 				"/>
				<polygon id="XMLID_476_" class="st3" points="640.3,433.7 564,329.2 564,325.7 642.8,433.7 				"/>
				<polygon id="XMLID_475_" class="st3" points="630.3,433.7 564,342.9 564,339.5 632.8,433.7 				"/>
				<polygon id="XMLID_474_" class="st3" points="620.3,433.7 564,356.6 564,353.2 622.8,433.7 				"/>
				<polygon id="XMLID_473_" class="st3" points="610.3,433.7 564,370.4 564,367 612.8,433.7 				"/>
				<polygon id="XMLID_472_" class="st3" points="600.2,433.7 564,384.1 564,380.7 602.7,433.7 				"/>
				<polygon id="XMLID_471_" class="st3" points="590.2,433.7 564,397.8 564,394.4 592.7,433.7 				"/>
				<polygon id="XMLID_470_" class="st3" points="580.2,433.7 564,411.5 564,408.1 582.7,433.7 				"/>
				<polygon id="XMLID_469_" class="st3" points="570.2,433.7 564,425.3 564,421.8 572.7,433.7 				"/>
			</g>
			<g id="XMLID_402_">
				<polygon id="XMLID_467_" class="st3" points="1213.8,-19.2 1220,-10.7 1220,-7.3 1211.3,-19.2 				"/>
				<polygon id="XMLID_466_" class="st3" points="1203.9,-19.2 1220,3 1220,6.4 1201.3,-19.2 				"/>
				<polygon id="XMLID_465_" class="st3" points="1193.8,-19.2 1220,16.7 1220,20.2 1191.3,-19.2 				"/>
				<polygon id="XMLID_464_" class="st3" points="1183.8,-19.2 1220,30.5 1220,33.9 1181.3,-19.2 				"/>
				<polygon id="XMLID_463_" class="st3" points="1173.8,-19.2 1220,44.2 1220,47.6 1171.3,-19.2 				"/>
				<polygon id="XMLID_462_" class="st3" points="1163.8,-19.2 1220,57.9 1220,61.3 1161.2,-19.2 				"/>
				<polygon id="XMLID_461_" class="st3" points="1153.7,-19.2 1220,71.6 1220,75.1 1151.3,-19.2 				"/>
				<polygon id="XMLID_460_" class="st3" points="1143.7,-19.2 1220,85.4 1220,88.8 1141.2,-19.2 				"/>
				<polygon id="XMLID_459_" class="st3" points="1133.7,-19.2 1220,99.1 1220,102.5 1131.2,-19.2 				"/>
				<polygon id="XMLID_458_" class="st3" points="1123.7,-19.2 1220,112.8 1220,116.3 1121.1,-19.2 				"/>
				<polygon id="XMLID_457_" class="st3" points="1113.7,-19.2 1220,126.5 1220,130 1111.2,-19.2 				"/>
				<polygon id="XMLID_456_" class="st3" points="1103.6,-19.2 1220,140.3 1220,143.7 1101.1,-19.2 				"/>
				<polygon id="XMLID_455_" class="st3" points="1093.6,-19.2 1220,154 1220,157.4 1091.1,-19.2 				"/>
				<polygon id="XMLID_454_" class="st3" points="1083.6,-19.2 1220,167.7 1220,171.2 1081.1,-19.2 				"/>
				<polygon id="XMLID_453_" class="st3" points="1073.6,-19.2 1220,181.4 1220,184.9 1071.1,-19.2 				"/>
				<polygon id="XMLID_452_" class="st3" points="1063.5,-19.2 1220,195.2 1220,198.6 1061.1,-19.2 				"/>
				<polygon id="XMLID_451_" class="st3" points="1053.6,-19.2 1220,208.9 1220,212.3 1051,-19.2 				"/>
				<polygon id="XMLID_450_" class="st3" points="1043.5,-19.2 1220,222.6 1220,226.1 1041,-19.2 				"/>
				<polygon id="XMLID_449_" class="st3" points="1033.5,-19.2 1220,236.4 1220,239.8 1031,-19.2 				"/>
				<polygon id="XMLID_448_" class="st3" points="1023.5,-19.2 1220,250.1 1220,253.5 1021,-19.2 				"/>
				<polygon id="XMLID_447_" class="st3" points="1013.5,-19.2 1220,263.8 1220,267.3 1011,-19.2 				"/>
				<polygon id="XMLID_446_" class="st3" points="1003.5,-19.2 1220,277.6 1220,281 1001,-19.2 				"/>
				<polygon id="XMLID_445_" class="st3" points="993.4,-19.2 1220,291.3 1220,294.7 990.9,-19.2 				"/>
				<polygon id="XMLID_444_" class="st3" points="983.5,-19.2 1220,305 1220,308.5 981,-19.2 				"/>
				<polygon id="XMLID_443_" class="st3" points="973.4,-19.2 1220,318.7 1220,322.2 970.9,-19.2 				"/>
				<polygon id="XMLID_442_" class="st3" points="963.4,-19.2 1220,332.5 1220,335.9 960.9,-19.2 				"/>
				<polygon id="XMLID_441_" class="st3" points="953.3,-19.2 1220,346.2 1220,349.6 950.8,-19.2 				"/>
				<polygon id="XMLID_440_" class="st3" points="943.4,-19.2 1220,359.9 1220,363.3 940.9,-19.2 				"/>
				<polygon id="XMLID_439_" class="st3" points="933.3,-19.2 1220,373.6 1220,377.1 930.8,-19.2 				"/>
				<polygon id="XMLID_438_" class="st3" points="923.3,-19.2 1220,387.4 1220,390.8 920.8,-19.2 				"/>
				<polygon id="XMLID_437_" class="st3" points="913.3,-19.2 1220,401.1 1220,404.5 910.8,-19.2 				"/>
				<polygon id="XMLID_436_" class="st3" points="903.3,-19.2 1220,414.8 1220,418.3 900.8,-19.2 				"/>
				<polygon id="XMLID_435_" class="st3" points="892,-19.2 893.3,-19.2 1220,428.5 1220,430.3 1218.8,430.3 892,-17.5 				"/>
				<polygon id="XMLID_434_" class="st3" points="1208.8,430.3 892,-3.8 892,-7.2 1211.3,430.3 				"/>
				<polygon id="XMLID_433_" class="st3" points="1198.8,430.3 892,10 892,6.5 1201.2,430.3 				"/>
				<polygon id="XMLID_432_" class="st3" points="1188.7,430.3 892,23.7 892,20.3 1191.2,430.3 				"/>
				<polygon id="XMLID_431_" class="st3" points="1178.7,430.3 892,37.4 892,34 1181.2,430.3 				"/>
				<polygon id="XMLID_430_" class="st3" points="1168.7,430.3 892,51.1 892,47.7 1171.2,430.3 				"/>
				<polygon id="XMLID_429_" class="st3" points="1158.7,430.3 892,64.9 892,61.4 1161.2,430.3 				"/>
				<polygon id="XMLID_428_" class="st3" points="1148.6,430.3 892,78.6 892,75.2 1151.1,430.3 				"/>
				<polygon id="XMLID_427_" class="st3" points="1138.6,430.3 892,92.3 892,88.9 1141.2,430.3 				"/>
				<polygon id="XMLID_426_" class="st3" points="1128.6,430.3 892,106.1 892,102.6 1131.1,430.3 				"/>
				<polygon id="XMLID_425_" class="st3" points="1118.6,430.3 892,119.8 892,116.3 1121.1,430.3 				"/>
				<polygon id="XMLID_424_" class="st3" points="1108.6,430.3 892,133.5 892,130.1 1111.1,430.3 				"/>
				<polygon id="XMLID_423_" class="st3" points="1098.6,430.3 892,147.2 892,143.8 1101.1,430.3 				"/>
				<polygon id="XMLID_422_" class="st3" points="1088.5,430.3 892,161 892,157.5 1091,430.3 				"/>
				<polygon id="XMLID_421_" class="st3" points="1078.5,430.3 892,174.7 892,171.3 1081,430.3 				"/>
				<polygon id="XMLID_420_" class="st3" points="1068.5,430.3 892,188.4 892,185 1071,430.3 				"/>
				<polygon id="XMLID_419_" class="st3" points="1058.5,430.3 892,202.2 892,198.7 1061,430.3 				"/>
				<polygon id="XMLID_418_" class="st3" points="1048.5,430.3 892,215.9 892,212.5 1051,430.3 				"/>
				<polygon id="XMLID_417_" class="st3" points="1038.4,430.3 892,229.6 892,226.2 1041,430.3 				"/>
				<polygon id="XMLID_416_" class="st3" points="1028.5,430.3 892,243.3 892,239.9 1030.9,430.3 				"/>
				<polygon id="XMLID_415_" class="st3" points="1018.4,430.3 892,257.1 892,253.6 1020.9,430.3 				"/>
				<polygon id="XMLID_414_" class="st3" points="1008.4,430.3 892,270.8 892,267.4 1010.9,430.3 				"/>
				<polygon id="XMLID_413_" class="st3" points="998.4,430.3 892,284.5 892,281.1 1000.9,430.3 				"/>
				<polygon id="XMLID_412_" class="st3" points="988.4,430.3 892,298.2 892,294.8 990.9,430.3 				"/>
				<polygon id="XMLID_411_" class="st3" points="978.3,430.3 892,312 892,308.5 980.8,430.3 				"/>
				<polygon id="XMLID_410_" class="st3" points="968.3,430.3 892,325.7 892,322.3 970.9,430.3 				"/>
				<polygon id="XMLID_409_" class="st3" points="958.3,430.3 892,339.4 892,336 960.8,430.3 				"/>
				<polygon id="XMLID_408_" class="st3" points="948.3,430.3 892,353.2 892,349.7 950.8,430.3 				"/>
				<polygon id="XMLID_407_" class="st3" points="938.3,430.3 892,366.9 892,363.5 940.8,430.3 				"/>
				<polygon id="XMLID_406_" class="st3" points="928.2,430.3 892,380.6 892,377.2 930.8,430.3 				"/>
				<polygon id="XMLID_405_" class="st3" points="918.2,430.3 892,394.3 892,390.9 920.7,430.3 				"/>
				<polygon id="XMLID_404_" class="st3" points="908.2,430.3 892,408.1 892,404.6 910.7,430.3 				"/>
				<polygon id="XMLID_403_" class="st3" points="898.2,430.3 892,421.8 892,418.4 900.7,430.3 				"/>
			</g>
			<g id="XMLID_336_">
				<polygon id="XMLID_401_" class="st3" points="1541.8,-22.8 1548,-14.3 1548,-10.9 1539.3,-22.8 				"/>
				<polygon id="XMLID_400_" class="st3" points="1531.9,-22.8 1548,-0.6 1548,2.8 1529.3,-22.8 				"/>
				<polygon id="XMLID_399_" class="st3" points="1521.8,-22.8 1548,13.1 1548,16.6 1519.3,-22.8 				"/>
				<polygon id="XMLID_398_" class="st3" points="1511.8,-22.8 1548,26.9 1548,30.3 1509.3,-22.8 				"/>
				<polygon id="XMLID_397_" class="st3" points="1501.8,-22.8 1548,40.6 1548,44 1499.3,-22.8 				"/>
				<polygon id="XMLID_396_" class="st3" points="1491.8,-22.8 1548,54.3 1548,57.7 1489.2,-22.8 				"/>
				<polygon id="XMLID_395_" class="st3" points="1481.7,-22.8 1548,68 1548,71.5 1479.3,-22.8 				"/>
				<polygon id="XMLID_394_" class="st3" points="1471.7,-22.8 1548,81.8 1548,85.2 1469.2,-22.8 				"/>
				<polygon id="XMLID_393_" class="st3" points="1461.7,-22.8 1548,95.5 1548,98.9 1459.2,-22.8 				"/>
				<polygon id="XMLID_392_" class="st3" points="1451.7,-22.8 1548,109.2 1548,112.7 1449.1,-22.8 				"/>
				<polygon id="XMLID_391_" class="st3" points="1441.7,-22.8 1548,122.9 1548,126.4 1439.2,-22.8 				"/>
				<polygon id="XMLID_390_" class="st3" points="1431.6,-22.8 1548,136.7 1548,140.1 1429.1,-22.8 				"/>
				<polygon id="XMLID_389_" class="st3" points="1421.6,-22.8 1548,150.4 1548,153.8 1419.1,-22.8 				"/>
				<polygon id="XMLID_388_" class="st3" points="1411.6,-22.8 1548,164.1 1548,167.6 1409.1,-22.8 				"/>
				<polygon id="XMLID_387_" class="st3" points="1401.6,-22.8 1548,177.8 1548,181.3 1399.1,-22.8 				"/>
				<polygon id="XMLID_386_" class="st3" points="1391.5,-22.8 1548,191.6 1548,195 1389.1,-22.8 				"/>
				<polygon id="XMLID_385_" class="st3" points="1381.6,-22.8 1548,205.3 1548,208.7 1379,-22.8 				"/>
				<polygon id="XMLID_384_" class="st3" points="1371.5,-22.8 1548,219 1548,222.5 1369,-22.8 				"/>
				<polygon id="XMLID_383_" class="st3" points="1361.5,-22.8 1548,232.8 1548,236.2 1359,-22.8 				"/>
				<polygon id="XMLID_382_" class="st3" points="1351.5,-22.8 1548,246.5 1548,249.9 1349,-22.8 				"/>
				<polygon id="XMLID_381_" class="st3" points="1341.5,-22.8 1548,260.2 1548,263.7 1339,-22.8 				"/>
				<polygon id="XMLID_380_" class="st3" points="1331.5,-22.8 1548,274 1548,277.4 1329,-22.8 				"/>
				<polygon id="XMLID_379_" class="st3" points="1321.4,-22.8 1548,287.7 1548,291.1 1318.9,-22.8 				"/>
				<polygon id="XMLID_378_" class="st3" points="1311.4,-22.8 1548,301.4 1548,304.9 1309,-22.8 				"/>
				<polygon id="XMLID_377_" class="st3" points="1301.4,-22.8 1548,315.1 1548,318.6 1298.9,-22.8 				"/>
				<polygon id="XMLID_376_" class="st3" points="1291.4,-22.8 1548,328.9 1548,332.3 1288.9,-22.8 				"/>
				<polygon id="XMLID_375_" class="st3" points="1281.3,-22.8 1548,342.6 1548,346 1278.8,-22.8 				"/>
				<polygon id="XMLID_374_" class="st3" points="1271.4,-22.8 1548,356.3 1548,359.7 1268.9,-22.8 				"/>
				<polygon id="XMLID_373_" class="st3" points="1261.3,-22.8 1548,370 1548,373.5 1258.8,-22.8 				"/>
				<polygon id="XMLID_372_" class="st3" points="1251.3,-22.8 1548,383.8 1548,387.2 1248.8,-22.8 				"/>
				<polygon id="XMLID_371_" class="st3" points="1241.3,-22.8 1548,397.5 1548,400.9 1238.8,-22.8 				"/>
				<polygon id="XMLID_370_" class="st3" points="1231.3,-22.8 1548,411.2 1548,414.7 1228.8,-22.8 				"/>
				<polygon id="XMLID_369_" class="st3" points="1220,-22.8 1221.3,-22.8 1548,424.9 1548,426.7 1546.8,426.7 1220,-21.1 				"/>
				<polygon id="XMLID_368_" class="st3" points="1536.8,426.7 1220,-7.4 1220,-10.8 1539.3,426.7 				"/>
				<polygon id="XMLID_367_" class="st3" points="1526.8,426.7 1220,6.4 1220,2.9 1529.2,426.7 				"/>
				<polygon id="XMLID_366_" class="st3" points="1516.7,426.7 1220,20.1 1220,16.7 1519.2,426.7 				"/>
				<polygon id="XMLID_365_" class="st3" points="1506.7,426.7 1220,33.8 1220,30.4 1509.2,426.7 				"/>
				<polygon id="XMLID_364_" class="st3" points="1496.7,426.7 1220,47.5 1220,44.1 1499.2,426.7 				"/>
				<polygon id="XMLID_363_" class="st3" points="1486.7,426.7 1220,61.3 1220,57.8 1489.2,426.7 				"/>
				<polygon id="XMLID_362_" class="st3" points="1476.6,426.7 1220,75 1220,71.6 1479.1,426.7 				"/>
				<polygon id="XMLID_361_" class="st3" points="1466.6,426.7 1220,88.7 1220,85.3 1469.2,426.7 				"/>
				<polygon id="XMLID_360_" class="st3" points="1456.6,426.7 1220,102.5 1220,99 1459.1,426.7 				"/>
				<polygon id="XMLID_359_" class="st3" points="1446.6,426.7 1220,116.2 1220,112.7 1449.1,426.7 				"/>
				<polygon id="XMLID_358_" class="st3" points="1436.6,426.7 1220,129.9 1220,126.5 1439.1,426.7 				"/>
				<polygon id="XMLID_357_" class="st3" points="1426.6,426.7 1220,143.6 1220,140.2 1429.1,426.7 				"/>
				<polygon id="XMLID_356_" class="st3" points="1416.5,426.7 1220,157.4 1220,153.9 1419,426.7 				"/>
				<polygon id="XMLID_355_" class="st3" points="1406.5,426.7 1220,171.1 1220,167.7 1409,426.7 				"/>
				<polygon id="XMLID_354_" class="st3" points="1396.5,426.7 1220,184.8 1220,181.4 1399,426.7 				"/>
				<polygon id="XMLID_353_" class="st3" points="1386.5,426.7 1220,198.6 1220,195.1 1389,426.7 				"/>
				<polygon id="XMLID_352_" class="st3" points="1376.5,426.7 1220,212.3 1220,208.9 1379,426.7 				"/>
				<polygon id="XMLID_351_" class="st3" points="1366.4,426.7 1220,226 1220,222.6 1369,426.7 				"/>
				<polygon id="XMLID_350_" class="st3" points="1356.5,426.7 1220,239.7 1220,236.3 1358.9,426.7 				"/>
				<polygon id="XMLID_349_" class="st3" points="1346.4,426.7 1220,253.5 1220,250 1348.9,426.7 				"/>
				<polygon id="XMLID_348_" class="st3" points="1336.4,426.7 1220,267.2 1220,263.8 1338.9,426.7 				"/>
				<polygon id="XMLID_347_" class="st3" points="1326.4,426.7 1220,280.9 1220,277.5 1328.9,426.7 				"/>
				<polygon id="XMLID_346_" class="st3" points="1316.4,426.7 1220,294.6 1220,291.2 1318.9,426.7 				"/>
				<polygon id="XMLID_345_" class="st3" points="1306.3,426.7 1220,308.4 1220,304.9 1308.8,426.7 				"/>
				<polygon id="XMLID_344_" class="st3" points="1296.3,426.7 1220,322.1 1220,318.7 1298.9,426.7 				"/>
				<polygon id="XMLID_343_" class="st3" points="1286.3,426.7 1220,335.8 1220,332.4 1288.8,426.7 				"/>
				<polygon id="XMLID_342_" class="st3" points="1276.3,426.7 1220,349.6 1220,346.1 1278.8,426.7 				"/>
				<polygon id="XMLID_341_" class="st3" points="1266.3,426.7 1220,363.3 1220,359.9 1268.8,426.7 				"/>
				<polygon id="XMLID_340_" class="st3" points="1256.2,426.7 1220,377 1220,373.6 1258.8,426.7 				"/>
				<polygon id="XMLID_339_" class="st3" points="1246.2,426.7 1220,390.7 1220,387.3 1248.7,426.7 				"/>
				<polygon id="XMLID_338_" class="st3" points="1236.2,426.7 1220,404.5 1220,401 1238.7,426.7 				"/>
				<polygon id="XMLID_337_" class="st3" points="1226.2,426.7 1220,418.2 1220,414.8 1228.7,426.7 				"/>
			</g>
			<g id="XMLID_270_">
				<polygon id="XMLID_335_" class="st3" points="1869.8,-26.3 1876,-17.8 1876,-14.4 1867.3,-26.3 				"/>
				<polygon id="XMLID_334_" class="st3" points="1859.9,-26.3 1876,-4.1 1876,-0.7 1857.3,-26.3 				"/>
				<polygon id="XMLID_333_" class="st3" points="1849.8,-26.3 1876,9.6 1876,13.1 1847.3,-26.3 				"/>
				<polygon id="XMLID_332_" class="st3" points="1839.8,-26.3 1876,23.4 1876,26.8 1837.3,-26.3 				"/>
				<polygon id="XMLID_331_" class="st3" points="1829.8,-26.3 1876,37.1 1876,40.5 1827.3,-26.3 				"/>
				<polygon id="XMLID_330_" class="st3" points="1819.8,-26.3 1876,50.8 1876,54.2 1817.2,-26.3 				"/>
				<polygon id="XMLID_329_" class="st3" points="1809.7,-26.3 1876,64.5 1876,68 1807.3,-26.3 				"/>
				<polygon id="XMLID_328_" class="st3" points="1799.7,-26.3 1876,78.3 1876,81.7 1797.2,-26.3 				"/>
				<polygon id="XMLID_327_" class="st3" points="1789.7,-26.3 1876,92 1876,95.4 1787.2,-26.3 				"/>
				<polygon id="XMLID_326_" class="st3" points="1779.7,-26.3 1876,105.7 1876,109.2 1777.1,-26.3 				"/>
				<polygon id="XMLID_325_" class="st3" points="1769.7,-26.3 1876,119.4 1876,122.9 1767.2,-26.3 				"/>
				<polygon id="XMLID_324_" class="st3" points="1759.6,-26.3 1876,133.2 1876,136.6 1757.1,-26.3 				"/>
				<polygon id="XMLID_323_" class="st3" points="1749.6,-26.3 1876,146.9 1876,150.3 1747.1,-26.3 				"/>
				<polygon id="XMLID_322_" class="st3" points="1739.6,-26.3 1876,160.6 1876,164.1 1737.1,-26.3 				"/>
				<polygon id="XMLID_321_" class="st3" points="1729.6,-26.3 1876,174.3 1876,177.8 1727.1,-26.3 				"/>
				<polygon id="XMLID_320_" class="st3" points="1719.5,-26.3 1876,188.1 1876,191.5 1717.1,-26.3 				"/>
				<polygon id="XMLID_319_" class="st3" points="1709.6,-26.3 1876,201.8 1876,205.2 1707,-26.3 				"/>
				<polygon id="XMLID_318_" class="st3" points="1699.5,-26.3 1876,215.5 1876,219 1697,-26.3 				"/>
				<polygon id="XMLID_317_" class="st3" points="1689.5,-26.3 1876,229.3 1876,232.7 1687,-26.3 				"/>
				<polygon id="XMLID_316_" class="st3" points="1679.5,-26.3 1876,243 1876,246.4 1677,-26.3 				"/>
				<polygon id="XMLID_315_" class="st3" points="1669.5,-26.3 1876,256.7 1876,260.2 1667,-26.3 				"/>
				<polygon id="XMLID_314_" class="st3" points="1659.5,-26.3 1876,270.5 1876,273.9 1657,-26.3 				"/>
				<polygon id="XMLID_313_" class="st3" points="1649.4,-26.3 1876,284.2 1876,287.6 1646.9,-26.3 				"/>
				<polygon id="XMLID_312_" class="st3" points="1639.4,-26.3 1876,297.9 1876,301.4 1637,-26.3 				"/>
				<polygon id="XMLID_311_" class="st3" points="1629.4,-26.3 1876,311.6 1876,315.1 1626.9,-26.3 				"/>
				<polygon id="XMLID_310_" class="st3" points="1619.4,-26.3 1876,325.4 1876,328.8 1616.9,-26.3 				"/>
				<polygon id="XMLID_309_" class="st3" points="1609.3,-26.3 1876,339.1 1876,342.5 1606.8,-26.3 				"/>
				<polygon id="XMLID_308_" class="st3" points="1599.4,-26.3 1876,352.8 1876,356.2 1596.9,-26.3 				"/>
				<polygon id="XMLID_307_" class="st3" points="1589.3,-26.3 1876,366.5 1876,370 1586.8,-26.3 				"/>
				<polygon id="XMLID_306_" class="st3" points="1579.3,-26.3 1876,380.3 1876,383.7 1576.8,-26.3 				"/>
				<polygon id="XMLID_305_" class="st3" points="1569.3,-26.3 1876,394 1876,397.4 1566.8,-26.3 				"/>
				<polygon id="XMLID_304_" class="st3" points="1559.3,-26.3 1876,407.7 1876,411.2 1556.8,-26.3 				"/>
				<polygon id="XMLID_303_" class="st3" points="1548,-26.3 1549.3,-26.3 1876,421.4 1876,423.2 1874.8,423.2 1548,-24.6 				"/>
				<polygon id="XMLID_302_" class="st3" points="1864.8,423.2 1548,-10.9 1548,-14.3 1867.3,423.2 				"/>
				<polygon id="XMLID_301_" class="st3" points="1854.8,423.2 1548,2.9 1548,-0.6 1857.2,423.2 				"/>
				<polygon id="XMLID_300_" class="st3" points="1844.7,423.2 1548,16.6 1548,13.2 1847.2,423.2 				"/>
				<polygon id="XMLID_299_" class="st3" points="1834.7,423.2 1548,30.3 1548,26.9 1837.2,423.2 				"/>
				<polygon id="XMLID_298_" class="st3" points="1824.7,423.2 1548,44 1548,40.6 1827.2,423.2 				"/>
				<polygon id="XMLID_297_" class="st3" points="1814.7,423.2 1548,57.8 1548,54.3 1817.2,423.2 				"/>
				<polygon id="XMLID_296_" class="st3" points="1804.6,423.2 1548,71.5 1548,68.1 1807.1,423.2 				"/>
				<polygon id="XMLID_295_" class="st3" points="1794.6,423.2 1548,85.2 1548,81.8 1797.2,423.2 				"/>
				<polygon id="XMLID_294_" class="st3" points="1784.6,423.2 1548,99 1548,95.5 1787.1,423.2 				"/>
				<polygon id="XMLID_293_" class="st3" points="1774.6,423.2 1548,112.7 1548,109.2 1777.1,423.2 				"/>
				<polygon id="XMLID_292_" class="st3" points="1764.6,423.2 1548,126.4 1548,123 1767.1,423.2 				"/>
				<polygon id="XMLID_291_" class="st3" points="1754.6,423.2 1548,140.1 1548,136.7 1757.1,423.2 				"/>
				<polygon id="XMLID_290_" class="st3" points="1744.5,423.2 1548,153.9 1548,150.4 1747,423.2 				"/>
				<polygon id="XMLID_289_" class="st3" points="1734.5,423.2 1548,167.6 1548,164.2 1737,423.2 				"/>
				<polygon id="XMLID_288_" class="st3" points="1724.5,423.2 1548,181.3 1548,177.9 1727,423.2 				"/>
				<polygon id="XMLID_287_" class="st3" points="1714.5,423.2 1548,195.1 1548,191.6 1717,423.2 				"/>
				<polygon id="XMLID_286_" class="st3" points="1704.5,423.2 1548,208.8 1548,205.4 1707,423.2 				"/>
				<polygon id="XMLID_285_" class="st3" points="1694.4,423.2 1548,222.5 1548,219.1 1697,423.2 				"/>
				<polygon id="XMLID_284_" class="st3" points="1684.5,423.2 1548,236.2 1548,232.8 1686.9,423.2 				"/>
				<polygon id="XMLID_283_" class="st3" points="1674.4,423.2 1548,250 1548,246.5 1676.9,423.2 				"/>
				<polygon id="XMLID_282_" class="st3" points="1664.4,423.2 1548,263.7 1548,260.3 1666.9,423.2 				"/>
				<polygon id="XMLID_281_" class="st3" points="1654.4,423.2 1548,277.4 1548,274 1656.9,423.2 				"/>
				<polygon id="XMLID_280_" class="st3" points="1644.4,423.2 1548,291.1 1548,287.7 1646.9,423.2 				"/>
				<polygon id="XMLID_279_" class="st3" points="1634.3,423.2 1548,304.9 1548,301.4 1636.8,423.2 				"/>
				<polygon id="XMLID_278_" class="st3" points="1624.3,423.2 1548,318.6 1548,315.2 1626.9,423.2 				"/>
				<polygon id="XMLID_277_" class="st3" points="1614.3,423.2 1548,332.3 1548,328.9 1616.8,423.2 				"/>
				<polygon id="XMLID_276_" class="st3" points="1604.3,423.2 1548,346.1 1548,342.6 1606.8,423.2 				"/>
				<polygon id="XMLID_275_" class="st3" points="1594.3,423.2 1548,359.8 1548,356.4 1596.8,423.2 				"/>
				<polygon id="XMLID_274_" class="st3" points="1584.2,423.2 1548,373.5 1548,370.1 1586.8,423.2 				"/>
				<polygon id="XMLID_273_" class="st3" points="1574.2,423.2 1548,387.2 1548,383.8 1576.7,423.2 				"/>
				<polygon id="XMLID_272_" class="st3" points="1564.2,423.2 1548,401 1548,397.5 1566.7,423.2 				"/>
				<polygon id="XMLID_271_" class="st3" points="1554.2,423.2 1548,414.7 1548,411.3 1556.7,423.2 				"/>
			</g>
		</g>
	</g>
</g>
</svg>
