<?xml version="1.0" encoding="utf-8"?>
<!-- Generator: Adobe Illustrator 19.0.0, SVG Export Plug-In . SVG Version: 6.00 Build 0)  -->
<svg version="1.1" id="Layer_1" xmlns="http://www.w3.org/2000/svg" xmlns:xlink="http://www.w3.org/1999/xlink" x="0px" y="0px"
	 viewBox="206 368 1024 58" style="enable-background:new 206 368 1024 58;" xml:space="preserve">
<style type="text/css">
	.st0{fill:none;stroke:#F79824;stroke-width:6;stroke-miterlimit:10;}
	.st1{fill:#FFFFFF;}
	.st2{fill:#075682;}
	.st3{fill:#009EE0;}
	.st4{opacity:0.24;}
</style>
<path id="XMLID_18_" class="st0" d="M1443,448.6"/>
<path id="XMLID_15_" class="st0" d="M580.6,446.7"/>
<g id="XMLID_3_">
	<polygon id="XMLID_14_" class="st1" points="206,421.8 1230.2,424 1230,368.4 206,368.4 	"/>
	<polygon id="XMLID_11_" class="st2" points="367,368.4 367,368.4 406.6,418.3 1230,418.3 1230.2,424 1146.8,424 385.6,424 
		354.2,384.4 354.2,384.4 354.2,384.4 206,384.4 206,368.4 	"/>
	<g>
	</g>
	<polygon id="XMLID_8_" class="st3" points="354.2,384.4 350.4,384.4 346.6,384.4 342.8,384.4 339,384.4 347.3,394.9 355.6,405.3 
		363.8,415.7 372.1,426.2 375.9,426.2 379.8,426.2 383.6,426.2 1230.2,426.2 1230.2,424 385.6,424 362.5,394.9 	"/>
	<g class="st4">
	</g>
</g>
</svg>
