<?xml version="1.0" encoding="utf-8"?>
<!-- Generator: Adobe Illustrator 19.0.0, SVG Export Plug-In . SVG Version: 6.00 Build 0)  -->
<svg version="1.1" id="Layer_1" xmlns="http://www.w3.org/2000/svg" xmlns:xlink="http://www.w3.org/1999/xlink" x="0px" y="0px"
	 viewBox="-174 391.9 1800 58" style="enable-background:new -174 391.9 1800 58;" xml:space="preserve">
<style type="text/css">
	.st0{clip-path:url(#SVGID_2_);fill:none;}
	.st1{clip-path:url(#SVGID_2_);}
	.st2{clip-path:url(#SVGID_4_);}
	.st3{fill:#D1D1D1;}
	.st4{fill:#009EE0;}
	.st5{fill:#08447F;}
	.st6{fill:none;stroke:#CDD1D3;stroke-width:2;stroke-miterlimit:10;}
	.st7{fill:#FFFFFF;}
	.st8{fill:none;stroke:url(#SVGID_5_);stroke-miterlimit:10;}
</style>
<g>
	<defs>
		<rect id="SVGID_1_" x="-174" y="391.8" width="1802" height="55.6"/>
	</defs>
	<clipPath id="SVGID_2_">
		<use xlink:href="#SVGID_1_"  style="overflow:visible;"/>
	</clipPath>
	<polygon id="bottom" class="st0" points="-43.3,391.8 1826,391.8 1826,449.9 -43.3,451 	"/>
	<g class="st1">
		<defs>
			<rect id="SVGID_3_" x="-52.8" y="391.8" width="1878.8" height="57.5"/>
		</defs>
		<clipPath id="SVGID_4_">
			<use xlink:href="#SVGID_3_"  style="overflow:visible;"/>
		</clipPath>
		<g id="XMLID_71_" class="st2">
			<polygon id="XMLID_136_" class="st3" points="-34.7,391.9 -43.4,403.8 -43.4,400.3 -37.2,391.9 			"/>
			<polygon id="XMLID_135_" class="st3" points="-24.7,391.9 -43.4,417.5 -43.4,414.1 -27.2,391.9 			"/>
			<polygon id="XMLID_134_" class="st3" points="-14.7,391.9 -43.4,431.2 -43.4,427.8 -17.2,391.9 			"/>
			<polygon id="XMLID_133_" class="st3" points="-4.7,391.9 -43.4,445 -43.4,441.5 -7.2,391.9 			"/>
			<polygon id="XMLID_132_" class="st3" points="5.3,391.9 -43.4,458.7 -43.4,455.2 2.9,391.9 			"/>
			<polygon id="XMLID_131_" class="st3" points="15.4,391.9 -43.4,472.4 -43.4,469 12.9,391.9 			"/>
			<polygon id="XMLID_130_" class="st3" points="25.4,391.9 -43.4,486.1 -43.4,482.7 22.9,391.9 			"/>
			<polygon id="XMLID_129_" class="st3" points="35.4,391.9 -43.4,499.9 -43.4,496.4 32.9,391.9 			"/>
			<polygon id="XMLID_128_" class="st3" points="45.4,391.9 -43.4,513.6 -43.4,510.2 42.9,391.9 			"/>
			<polygon id="XMLID_127_" class="st3" points="55.5,391.9 -43.4,527.3 -43.4,523.9 53,391.9 			"/>
			<polygon id="XMLID_126_" class="st3" points="65.5,391.9 -43.4,541 -43.4,537.6 62.9,391.9 			"/>
			<polygon id="XMLID_125_" class="st3" points="75.5,391.9 -43.4,554.8 -43.4,551.3 73,391.9 			"/>
			<polygon id="XMLID_124_" class="st3" points="85.5,391.9 -43.4,568.5 -43.4,565.1 83,391.9 			"/>
			<polygon id="XMLID_123_" class="st3" points="95.5,391.9 -43.4,582.2 -43.4,578.8 93,391.9 			"/>
			<polygon id="XMLID_122_" class="st3" points="105.6,391.9 -43.4,596 -43.4,592.5 103,391.9 			"/>
			<polygon id="XMLID_121_" class="st3" points="115.6,391.9 -43.4,609.7 -43.4,606.2 113.1,391.9 			"/>
			<polygon id="XMLID_120_" class="st3" points="125.6,391.9 -43.4,623.4 -43.4,620 123.1,391.9 			"/>
			<polygon id="XMLID_119_" class="st3" points="135.6,391.9 -43.4,637.1 -43.4,633.7 133.1,391.9 			"/>
			<polygon id="XMLID_118_" class="st3" points="145.6,391.9 -43.4,650.9 -43.4,647.5 143.1,391.9 			"/>
			<polygon id="XMLID_117_" class="st3" points="155.6,391.9 -43.4,664.6 -43.4,661.2 153.1,391.9 			"/>
			<polygon id="XMLID_116_" class="st3" points="165.7,391.9 -43.4,678.3 -43.4,674.9 163.2,391.9 			"/>
			<polygon id="XMLID_115_" class="st3" points="175.7,391.9 -43.4,692.1 -43.4,688.6 173.1,391.9 			"/>
			<polygon id="XMLID_114_" class="st3" points="185.7,391.9 -43.4,705.8 -43.4,702.4 183.2,391.9 			"/>
			<polygon id="XMLID_113_" class="st3" points="195.7,391.9 -43.4,719.5 -43.4,716.1 193.2,391.9 			"/>
			<polygon id="XMLID_112_" class="st3" points="205.7,391.9 -43.4,733.3 -43.4,729.8 203.3,391.9 			"/>
			<polygon id="XMLID_111_" class="st3" points="215.7,391.9 -43.4,746.9 -43.4,743.5 213.2,391.9 			"/>
			<polygon id="XMLID_110_" class="st3" points="225.8,391.9 -43.4,760.7 -43.4,757.2 223.3,391.9 			"/>
			<polygon id="XMLID_109_" class="st3" points="235.8,391.9 -43.4,774.4 -43.4,771 233.3,391.9 			"/>
			<polygon id="XMLID_108_" class="st3" points="245.8,391.9 -43.4,788.1 -43.4,784.7 243.3,391.9 			"/>
			<polygon id="XMLID_107_" class="st3" points="255.8,391.9 -43.4,801.9 -43.4,798.4 253.3,391.9 			"/>
			<polygon id="XMLID_106_" class="st3" points="265.8,391.9 -43.4,815.6 -43.4,812.2 263.3,391.9 			"/>
			<polygon id="XMLID_105_" class="st3" points="275.9,391.9 -43.4,829.3 -43.4,825.9 273.4,391.9 			"/>
			<polygon id="XMLID_104_" class="st3" points="284.6,393.6 -42.2,841.3 -43.4,841.3 -43.4,839.6 283.4,391.9 284.6,391.9 			"/>
			<polygon id="XMLID_103_" class="st3" points="-34.6,841.3 284.6,403.9 284.6,407.3 -32.1,841.3 			"/>
			<polygon id="XMLID_102_" class="st3" points="-24.6,841.3 284.6,417.6 284.6,421 -22.1,841.3 			"/>
			<polygon id="XMLID_101_" class="st3" points="-14.6,841.3 284.6,431.3 284.6,434.8 -12.1,841.3 			"/>
			<polygon id="XMLID_100_" class="st3" points="-4.6,841.3 284.6,445 284.6,448.5 -2.1,841.3 			"/>
			<polygon id="XMLID_99_" class="st3" points="5.4,841.3 284.6,458.8 284.6,462.2 8,841.3 			"/>
			<polygon id="XMLID_98_" class="st3" points="15.4,841.3 284.6,472.5 284.6,475.9 17.9,841.3 			"/>
			<polygon id="XMLID_97_" class="st3" points="25.5,841.3 284.6,486.2 284.6,489.7 28,841.3 			"/>
			<polygon id="XMLID_96_" class="st3" points="35.5,841.3 284.6,500 284.6,503.4 38,841.3 			"/>
			<polygon id="XMLID_95_" class="st3" points="45.5,841.3 284.6,513.7 284.6,517.1 48,841.3 			"/>
			<polygon id="XMLID_94_" class="st3" points="55.5,841.3 284.6,527.4 284.6,530.8 58,841.3 			"/>
			<polygon id="XMLID_93_" class="st3" points="65.6,841.3 284.6,541.2 284.6,544.6 68.1,841.3 			"/>
			<polygon id="XMLID_92_" class="st3" points="75.5,841.3 284.6,554.9 284.6,558.3 78.1,841.3 			"/>
			<polygon id="XMLID_91_" class="st3" points="85.6,841.3 284.6,568.6 284.6,572 88.1,841.3 			"/>
			<polygon id="XMLID_90_" class="st3" points="95.6,841.3 284.6,582.3 284.6,585.8 98.1,841.3 			"/>
			<polygon id="XMLID_89_" class="st3" points="105.6,841.3 284.6,596.1 284.6,599.5 108.1,841.3 			"/>
			<polygon id="XMLID_88_" class="st3" points="115.6,841.3 284.6,609.8 284.6,613.2 118.2,841.3 			"/>
			<polygon id="XMLID_87_" class="st3" points="125.6,841.3 284.6,623.5 284.6,627 128.1,841.3 			"/>
			<polygon id="XMLID_86_" class="st3" points="135.7,841.3 284.6,637.2 284.6,640.7 138.2,841.3 			"/>
			<polygon id="XMLID_85_" class="st3" points="145.7,841.3 284.6,651 284.6,654.4 148.2,841.3 			"/>
			<polygon id="XMLID_84_" class="st3" points="155.7,841.3 284.6,664.7 284.6,668.2 158.2,841.3 			"/>
			<polygon id="XMLID_83_" class="st3" points="165.7,841.3 284.6,678.4 284.6,681.8 168.2,841.3 			"/>
			<polygon id="XMLID_82_" class="st3" points="175.8,841.3 284.6,692.1 284.6,695.6 178.3,841.3 			"/>
			<polygon id="XMLID_81_" class="st3" points="185.7,841.3 284.6,705.9 284.6,709.3 188.3,841.3 			"/>
			<polygon id="XMLID_80_" class="st3" points="195.8,841.3 284.6,719.6 284.6,723 198.3,841.3 			"/>
			<polygon id="XMLID_79_" class="st3" points="205.8,841.3 284.6,733.3 284.6,736.8 208.3,841.3 			"/>
			<polygon id="XMLID_78_" class="st3" points="215.8,841.3 284.6,747.1 284.6,750.5 218.3,841.3 			"/>
			<polygon id="XMLID_77_" class="st3" points="225.8,841.3 284.6,760.8 284.6,764.2 228.3,841.3 			"/>
			<polygon id="XMLID_76_" class="st3" points="235.9,841.3 284.6,774.6 284.6,778 238.3,841.3 			"/>
			<polygon id="XMLID_75_" class="st3" points="245.9,841.3 284.6,788.3 284.6,791.7 248.4,841.3 			"/>
			<polygon id="XMLID_74_" class="st3" points="255.9,841.3 284.6,802 284.6,805.4 258.4,841.3 			"/>
			<polygon id="XMLID_73_" class="st3" points="265.9,841.3 284.6,815.7 284.6,819.1 268.4,841.3 			"/>
			<polygon id="XMLID_72_" class="st3" points="275.9,841.3 284.6,829.4 284.6,832.9 278.4,841.3 			"/>
		</g>
		<g id="XMLID_3_" class="st2">
			<polygon id="XMLID_264_" class="st3" points="293.4,381.7 284.7,393.6 284.7,390.1 290.9,381.7 			"/>
			<polygon id="XMLID_263_" class="st3" points="303.4,381.7 284.7,407.3 284.7,403.9 300.9,381.7 			"/>
			<polygon id="XMLID_262_" class="st3" points="313.4,381.7 284.7,421 284.7,417.6 310.9,381.7 			"/>
			<polygon id="XMLID_261_" class="st3" points="323.4,381.7 284.7,434.8 284.7,431.3 320.9,381.7 			"/>
			<polygon id="XMLID_260_" class="st3" points="333.4,381.7 284.7,448.5 284.7,445 331,381.7 			"/>
			<polygon id="XMLID_259_" class="st3" points="343.5,381.7 284.7,462.2 284.7,458.8 341,381.7 			"/>
			<polygon id="XMLID_258_" class="st3" points="353.5,381.7 284.7,475.9 284.7,472.5 351,381.7 			"/>
			<polygon id="XMLID_257_" class="st3" points="363.5,381.7 284.7,489.7 284.7,486.2 361,381.7 			"/>
			<polygon id="XMLID_256_" class="st3" points="373.5,381.7 284.7,503.4 284.7,500 371,381.7 			"/>
			<polygon id="XMLID_255_" class="st3" points="383.6,381.7 284.7,517.1 284.7,513.7 381.1,381.7 			"/>
			<polygon id="XMLID_254_" class="st3" points="393.6,381.7 284.7,530.8 284.7,527.4 391,381.7 			"/>
			<polygon id="XMLID_253_" class="st3" points="403.6,381.7 284.7,544.6 284.7,541.1 401.1,381.7 			"/>
			<polygon id="XMLID_252_" class="st3" points="413.6,381.7 284.7,558.3 284.7,554.9 411.1,381.7 			"/>
			<polygon id="XMLID_251_" class="st3" points="423.6,381.7 284.7,572 284.7,568.6 421.1,381.7 			"/>
			<polygon id="XMLID_250_" class="st3" points="433.7,381.7 284.7,585.8 284.7,582.3 431.1,381.7 			"/>
			<polygon id="XMLID_249_" class="st3" points="443.7,381.7 284.7,599.5 284.7,596 441.2,381.7 			"/>
			<polygon id="XMLID_248_" class="st3" points="453.7,381.7 284.7,613.2 284.7,609.8 451.2,381.7 			"/>
			<polygon id="XMLID_247_" class="st3" points="463.7,381.7 284.7,626.9 284.7,623.5 461.2,381.7 			"/>
			<polygon id="XMLID_246_" class="st3" points="473.7,381.7 284.7,640.7 284.7,637.3 471.2,381.7 			"/>
			<polygon id="XMLID_245_" class="st3" points="483.7,381.7 284.7,654.4 284.7,651 481.2,381.7 			"/>
			<polygon id="XMLID_244_" class="st3" points="493.8,381.7 284.7,668.1 284.7,664.7 491.3,381.7 			"/>
			<polygon id="XMLID_243_" class="st3" points="503.8,381.7 284.7,681.9 284.7,678.4 501.2,381.7 			"/>
			<polygon id="XMLID_242_" class="st3" points="513.8,381.7 284.7,695.6 284.7,692.2 511.3,381.7 			"/>
			<polygon id="XMLID_241_" class="st3" points="523.8,381.7 284.7,709.3 284.7,705.9 521.3,381.7 			"/>
			<polygon id="XMLID_240_" class="st3" points="533.8,381.7 284.7,723.1 284.7,719.6 531.4,381.7 			"/>
			<polygon id="XMLID_239_" class="st3" points="543.8,381.7 284.7,736.7 284.7,733.3 541.3,381.7 			"/>
			<polygon id="XMLID_238_" class="st3" points="553.9,381.7 284.7,750.5 284.7,747 551.4,381.7 			"/>
			<polygon id="XMLID_237_" class="st3" points="563.9,381.7 284.7,764.2 284.7,760.8 561.4,381.7 			"/>
			<polygon id="XMLID_236_" class="st3" points="573.9,381.7 284.7,777.9 284.7,774.5 571.4,381.7 			"/>
			<polygon id="XMLID_235_" class="st3" points="583.9,381.7 284.7,791.7 284.7,788.2 581.4,381.7 			"/>
			<polygon id="XMLID_234_" class="st3" points="593.9,381.7 284.7,805.4 284.7,802 591.4,381.7 			"/>
			<polygon id="XMLID_233_" class="st3" points="604,381.7 284.7,819.1 284.7,815.7 601.5,381.7 			"/>
			<polygon id="XMLID_232_" class="st3" points="612.7,383.4 285.9,831.1 284.7,831.1 284.7,829.4 611.5,381.7 612.7,381.7 			"/>
			<polygon id="XMLID_231_" class="st3" points="293.5,831.1 612.7,393.7 612.7,397.1 296,831.1 			"/>
			<polygon id="XMLID_230_" class="st3" points="303.5,831.1 612.7,407.4 612.7,410.8 306,831.1 			"/>
			<polygon id="XMLID_229_" class="st3" points="313.5,831.1 612.7,421.1 612.7,424.6 316,831.1 			"/>
			<polygon id="XMLID_228_" class="st3" points="323.5,831.1 612.7,434.8 612.7,438.3 326,831.1 			"/>
			<polygon id="XMLID_227_" class="st3" points="333.5,831.1 612.7,448.6 612.7,452 336.1,831.1 			"/>
			<polygon id="XMLID_226_" class="st3" points="343.5,831.1 612.7,462.3 612.7,465.7 346,831.1 			"/>
			<polygon id="XMLID_225_" class="st3" points="353.6,831.1 612.7,476 612.7,479.5 356.1,831.1 			"/>
			<polygon id="XMLID_224_" class="st3" points="363.6,831.1 612.7,489.8 612.7,493.2 366.1,831.1 			"/>
			<polygon id="XMLID_223_" class="st3" points="373.6,831.1 612.7,503.5 612.7,506.9 376.1,831.1 			"/>
			<polygon id="XMLID_222_" class="st3" points="383.6,831.1 612.7,517.2 612.7,520.6 386.1,831.1 			"/>
			<polygon id="XMLID_221_" class="st3" points="393.7,831.1 612.7,531 612.7,534.4 396.2,831.1 			"/>
			<polygon id="XMLID_220_" class="st3" points="403.6,831.1 612.7,544.7 612.7,548.1 406.2,831.1 			"/>
			<polygon id="XMLID_219_" class="st3" points="413.7,831.1 612.7,558.4 612.7,561.8 416.2,831.1 			"/>
			<polygon id="XMLID_218_" class="st3" points="423.7,831.1 612.7,572.1 612.7,575.6 426.2,831.1 			"/>
			<polygon id="XMLID_217_" class="st3" points="433.7,831.1 612.7,585.9 612.7,589.3 436.2,831.1 			"/>
			<polygon id="XMLID_216_" class="st3" points="443.7,831.1 612.7,599.6 612.7,603 446.3,831.1 			"/>
			<polygon id="XMLID_215_" class="st3" points="453.7,831.1 612.7,613.3 612.7,616.8 456.2,831.1 			"/>
			<polygon id="XMLID_214_" class="st3" points="463.8,831.1 612.7,627 612.7,630.5 466.3,831.1 			"/>
			<polygon id="XMLID_213_" class="st3" points="473.8,831.1 612.7,640.8 612.7,644.2 476.3,831.1 			"/>
			<polygon id="XMLID_212_" class="st3" points="483.8,831.1 612.7,654.5 612.7,658 486.3,831.1 			"/>
			<polygon id="XMLID_211_" class="st3" points="493.8,831.1 612.7,668.2 612.7,671.6 496.3,831.1 			"/>
			<polygon id="XMLID_210_" class="st3" points="503.9,831.1 612.7,681.9 612.7,685.4 506.4,831.1 			"/>
			<polygon id="XMLID_209_" class="st3" points="513.8,831.1 612.7,695.7 612.7,699.1 516.4,831.1 			"/>
			<polygon id="XMLID_208_" class="st3" points="523.9,831.1 612.7,709.4 612.7,712.8 526.4,831.1 			"/>
			<polygon id="XMLID_207_" class="st3" points="533.9,831.1 612.7,723.1 612.7,726.6 536.4,831.1 			"/>
			<polygon id="XMLID_206_" class="st3" points="543.9,831.1 612.7,736.9 612.7,740.3 546.4,831.1 			"/>
			<polygon id="XMLID_205_" class="st3" points="553.9,831.1 612.7,750.6 612.7,754 556.4,831.1 			"/>
			<polygon id="XMLID_18_" class="st3" points="564,831.1 612.7,764.4 612.7,767.8 566.4,831.1 			"/>
			<polygon id="XMLID_15_" class="st3" points="574,831.1 612.7,778.1 612.7,781.5 576.5,831.1 			"/>
			<polygon id="XMLID_14_" class="st3" points="584,831.1 612.7,791.8 612.7,795.2 586.5,831.1 			"/>
			<polygon id="XMLID_11_" class="st3" points="594,831.1 612.7,805.5 612.7,808.9 596.5,831.1 			"/>
			<polygon id="XMLID_8_" class="st3" points="604,831.1 612.7,819.2 612.7,822.7 606.5,831.1 			"/>
		</g>
		<g id="XMLID_265_" class="st2">
			<polygon id="XMLID_330_" class="st3" points="621.4,385.3 612.6,397.1 612.7,393.7 618.9,385.3 			"/>
			<polygon id="XMLID_329_" class="st3" points="631.4,385.2 612.7,410.8 612.7,407.4 628.9,385.2 			"/>
			<polygon id="XMLID_328_" class="st3" points="641.4,385.3 612.7,424.6 612.7,421.2 638.9,385.3 			"/>
			<polygon id="XMLID_327_" class="st3" points="651.4,385.3 612.7,438.4 612.7,434.9 648.9,385.3 			"/>
			<polygon id="XMLID_326_" class="st3" points="661.4,385.3 612.7,452.1 612.7,448.6 659,385.3 			"/>
			<polygon id="XMLID_325_" class="st3" points="671.5,385.3 612.7,465.8 612.7,462.4 669,385.3 			"/>
			<polygon id="XMLID_324_" class="st3" points="681.5,385.3 612.7,479.5 612.7,476.1 679,385.3 			"/>
			<polygon id="XMLID_323_" class="st3" points="691.5,385.3 612.7,493.3 612.7,489.8 689,385.3 			"/>
			<polygon id="XMLID_322_" class="st3" points="701.5,385.3 612.7,507 612.7,503.6 699,385.3 			"/>
			<polygon id="XMLID_321_" class="st3" points="711.6,385.3 612.7,520.7 612.7,517.3 709.1,385.3 			"/>
			<polygon id="XMLID_320_" class="st3" points="721.6,385.3 612.7,534.4 612.7,531 719,385.3 			"/>
			<polygon id="XMLID_319_" class="st3" points="731.6,385.3 612.7,548.2 612.7,544.7 729.1,385.3 			"/>
			<polygon id="XMLID_318_" class="st3" points="741.6,385.3 612.7,561.9 612.7,558.5 739.1,385.3 			"/>
			<polygon id="XMLID_317_" class="st3" points="751.6,385.3 612.7,575.6 612.7,572.2 749.1,385.3 			"/>
			<polygon id="XMLID_316_" class="st3" points="761.7,385.3 612.7,589.4 612.7,585.9 759.1,385.3 			"/>
			<polygon id="XMLID_315_" class="st3" points="771.7,385.3 612.7,603.1 612.7,599.6 769.2,385.3 			"/>
			<polygon id="XMLID_314_" class="st3" points="781.7,385.3 612.7,616.8 612.7,613.4 779.2,385.3 			"/>
			<polygon id="XMLID_313_" class="st3" points="791.7,385.3 612.7,630.5 612.7,627.1 789.2,385.3 			"/>
			<polygon id="XMLID_312_" class="st3" points="801.7,385.3 612.7,644.3 612.7,640.9 799.2,385.3 			"/>
			<polygon id="XMLID_311_" class="st3" points="811.7,385.3 612.7,658 612.7,654.6 809.2,385.3 			"/>
			<polygon id="XMLID_310_" class="st3" points="821.8,385.3 612.7,671.7 612.7,668.3 819.3,385.3 			"/>
			<polygon id="XMLID_309_" class="st3" points="831.8,385.3 612.7,685.5 612.7,682 829.2,385.3 			"/>
			<polygon id="XMLID_308_" class="st3" points="841.8,385.3 612.7,699.2 612.7,695.8 839.3,385.3 			"/>
			<polygon id="XMLID_307_" class="st3" points="851.8,385.3 612.7,712.9 612.7,709.5 849.3,385.3 			"/>
			<polygon id="XMLID_306_" class="st3" points="861.8,385.3 612.7,726.7 612.7,723.2 859.4,385.3 			"/>
			<polygon id="XMLID_305_" class="st3" points="871.8,385.3 612.7,740.3 612.7,736.9 869.3,385.3 			"/>
			<polygon id="XMLID_304_" class="st3" points="881.9,385.3 612.7,754.1 612.7,750.6 879.4,385.3 			"/>
			<polygon id="XMLID_303_" class="st3" points="891.9,385.3 612.7,767.8 612.7,764.4 889.4,385.3 			"/>
			<polygon id="XMLID_302_" class="st3" points="901.9,385.3 612.7,781.5 612.7,778.1 899.4,385.3 			"/>
			<polygon id="XMLID_301_" class="st3" points="911.9,385.3 612.7,795.3 612.7,791.8 909.4,385.3 			"/>
			<polygon id="XMLID_300_" class="st3" points="921.9,385.3 612.7,809 612.7,805.6 919.4,385.3 			"/>
			<polygon id="XMLID_299_" class="st3" points="932,385.3 612.7,822.7 612.7,819.3 929.5,385.3 			"/>
			<polygon id="XMLID_298_" class="st3" points="940.7,387 613.9,834.7 612.7,834.7 612.7,833 939.5,385.3 940.7,385.3 			"/>
			<polygon id="XMLID_297_" class="st3" points="621.5,834.7 940.7,397.3 940.7,400.7 624,834.7 			"/>
			<polygon id="XMLID_296_" class="st3" points="631.5,834.7 940.7,411 940.7,414.4 634,834.7 			"/>
			<polygon id="XMLID_295_" class="st3" points="641.5,834.7 940.7,424.7 940.7,428.2 644,834.7 			"/>
			<polygon id="XMLID_294_" class="st3" points="651.5,834.7 940.7,438.4 940.7,441.9 654,834.7 			"/>
			<polygon id="XMLID_293_" class="st3" points="661.5,834.7 940.7,452.2 940.7,455.6 664.1,834.7 			"/>
			<polygon id="XMLID_292_" class="st3" points="671.5,834.7 940.7,465.9 940.7,469.3 674,834.7 			"/>
			<polygon id="XMLID_291_" class="st3" points="681.6,834.7 940.7,479.6 940.7,483.1 684.1,834.7 			"/>
			<polygon id="XMLID_290_" class="st3" points="691.6,834.7 940.7,493.4 940.7,496.8 694.1,834.7 			"/>
			<polygon id="XMLID_289_" class="st3" points="701.6,834.7 940.7,507.1 940.7,510.5 704.1,834.7 			"/>
			<polygon id="XMLID_288_" class="st3" points="711.6,834.7 940.7,520.8 940.7,524.2 714.1,834.7 			"/>
			<polygon id="XMLID_287_" class="st3" points="721.7,834.7 940.7,534.6 940.7,538 724.2,834.7 			"/>
			<polygon id="XMLID_286_" class="st3" points="731.6,834.7 940.7,548.3 940.7,551.7 734.2,834.7 			"/>
			<polygon id="XMLID_285_" class="st3" points="741.7,834.7 940.7,562 940.7,565.4 744.2,834.7 			"/>
			<polygon id="XMLID_284_" class="st3" points="751.7,834.7 940.7,575.7 940.7,579.2 754.2,834.7 			"/>
			<polygon id="XMLID_283_" class="st3" points="761.7,834.7 940.7,589.5 940.7,592.9 764.2,834.7 			"/>
			<polygon id="XMLID_282_" class="st3" points="771.7,834.7 940.7,603.2 940.7,606.6 774.3,834.7 			"/>
			<polygon id="XMLID_281_" class="st3" points="781.7,834.7 940.7,616.9 940.7,620.4 784.2,834.7 			"/>
			<polygon id="XMLID_280_" class="st3" points="791.8,834.7 940.7,630.6 940.7,634.1 794.3,834.7 			"/>
			<polygon id="XMLID_279_" class="st3" points="801.8,834.7 940.7,644.4 940.7,647.8 804.3,834.7 			"/>
			<polygon id="XMLID_278_" class="st3" points="811.8,834.7 940.7,658.1 940.7,661.6 814.3,834.7 			"/>
			<polygon id="XMLID_277_" class="st3" points="821.8,834.7 940.7,671.8 940.7,675.2 824.3,834.7 			"/>
			<polygon id="XMLID_276_" class="st3" points="831.9,834.7 940.7,685.5 940.7,689 834.4,834.7 			"/>
			<polygon id="XMLID_275_" class="st3" points="841.8,834.7 940.7,699.3 940.7,702.7 844.4,834.7 			"/>
			<polygon id="XMLID_274_" class="st3" points="851.9,834.7 940.7,713 940.7,716.4 854.4,834.7 			"/>
			<polygon id="XMLID_273_" class="st3" points="861.9,834.7 940.7,726.7 940.7,730.2 864.4,834.7 			"/>
			<polygon id="XMLID_272_" class="st3" points="871.9,834.7 940.7,740.5 940.7,743.9 874.4,834.7 			"/>
			<polygon id="XMLID_271_" class="st3" points="881.9,834.7 940.7,754.2 940.7,757.6 884.4,834.7 			"/>
			<polygon id="XMLID_270_" class="st3" points="892,834.7 940.7,768 940.7,771.4 894.4,834.7 			"/>
			<polygon id="XMLID_269_" class="st3" points="902,834.7 940.7,781.7 940.7,785.1 904.5,834.7 			"/>
			<polygon id="XMLID_268_" class="st3" points="912,834.7 940.7,795.4 940.7,798.8 914.5,834.7 			"/>
			<polygon id="XMLID_267_" class="st3" points="922,834.7 940.7,809.1 940.7,812.5 924.5,834.7 			"/>
			<polygon id="XMLID_266_" class="st3" points="932,834.7 940.7,822.8 940.7,826.3 934.5,834.7 			"/>
		</g>
		<g id="XMLID_331_" class="st2">
			<polygon id="XMLID_396_" class="st3" points="949.4,388.9 940.7,400.7 940.7,397.3 946.9,388.9 			"/>
			<polygon id="XMLID_395_" class="st3" points="959.4,388.8 940.7,414.4 940.7,411 956.9,388.8 			"/>
			<polygon id="XMLID_394_" class="st3" points="969.4,388.8 940.7,428.1 940.7,424.7 966.9,388.8 			"/>
			<polygon id="XMLID_393_" class="st3" points="979.4,388.8 940.7,441.9 940.7,438.4 976.9,388.8 			"/>
			<polygon id="XMLID_392_" class="st3" points="989.4,388.8 940.7,455.6 940.7,452.1 987,388.8 			"/>
			<polygon id="XMLID_391_" class="st3" points="999.5,388.8 940.7,469.3 940.7,465.9 997,388.8 			"/>
			<polygon id="XMLID_390_" class="st3" points="1009.5,388.8 940.7,483 940.7,479.6 1007,388.8 			"/>
			<polygon id="XMLID_389_" class="st3" points="1019.5,388.8 940.7,496.8 940.7,493.3 1017,388.8 			"/>
			<polygon id="XMLID_388_" class="st3" points="1029.5,388.8 940.7,510.5 940.7,507.1 1027,388.8 			"/>
			<polygon id="XMLID_387_" class="st3" points="1039.6,388.8 940.7,524.2 940.7,520.8 1037.1,388.8 			"/>
			<polygon id="XMLID_386_" class="st3" points="1049.6,388.8 940.7,537.9 940.7,534.5 1047,388.8 			"/>
			<polygon id="XMLID_385_" class="st3" points="1059.6,388.8 940.7,551.7 940.7,548.2 1057.1,388.8 			"/>
			<polygon id="XMLID_384_" class="st3" points="1069.6,388.8 940.7,565.4 940.7,562 1067.1,388.8 			"/>
			<polygon id="XMLID_383_" class="st3" points="1079.6,388.8 940.7,579.1 940.7,575.7 1077.1,388.8 			"/>
			<polygon id="XMLID_382_" class="st3" points="1089.7,388.8 940.7,592.9 940.7,589.4 1087.1,388.8 			"/>
			<polygon id="XMLID_381_" class="st3" points="1099.7,388.8 940.7,606.6 940.7,603.1 1097.2,388.8 			"/>
			<polygon id="XMLID_380_" class="st3" points="1109.7,388.8 940.7,620.3 940.7,616.9 1107.2,388.8 			"/>
			<polygon id="XMLID_379_" class="st3" points="1119.7,388.8 940.7,634 940.7,630.6 1117.2,388.8 			"/>
			<polygon id="XMLID_378_" class="st3" points="1129.7,388.8 940.7,647.8 940.7,644.4 1127.2,388.8 			"/>
			<polygon id="XMLID_377_" class="st3" points="1139.7,388.8 940.7,661.5 940.7,658.1 1137.2,388.8 			"/>
			<polygon id="XMLID_376_" class="st3" points="1149.8,388.8 940.7,675.2 940.7,671.8 1147.3,388.8 			"/>
			<polygon id="XMLID_375_" class="st3" points="1159.8,388.8 940.7,689 940.7,685.5 1157.2,388.8 			"/>
			<polygon id="XMLID_374_" class="st3" points="1169.8,388.8 940.7,702.7 940.7,699.3 1167.3,388.8 			"/>
			<polygon id="XMLID_373_" class="st3" points="1179.8,388.8 940.7,716.4 940.7,713 1177.3,388.8 			"/>
			<polygon id="XMLID_372_" class="st3" points="1189.8,388.8 940.7,730.2 940.7,726.7 1187.4,388.8 			"/>
			<polygon id="XMLID_371_" class="st3" points="1199.8,388.8 940.7,743.8 940.7,740.4 1197.3,388.8 			"/>
			<polygon id="XMLID_370_" class="st3" points="1209.9,388.8 940.7,757.6 940.7,754.1 1207.4,388.8 			"/>
			<polygon id="XMLID_369_" class="st3" points="1219.9,388.8 940.7,771.3 940.7,767.9 1217.4,388.8 			"/>
			<polygon id="XMLID_368_" class="st3" points="1229.9,388.8 940.7,785 940.7,781.6 1227.4,388.8 			"/>
			<polygon id="XMLID_367_" class="st3" points="1239.9,388.8 940.7,798.8 940.7,795.3 1237.4,388.8 			"/>
			<polygon id="XMLID_366_" class="st3" points="1249.9,388.8 940.7,812.5 940.7,809.1 1247.4,388.8 			"/>
			<polygon id="XMLID_365_" class="st3" points="1260,388.8 940.7,826.2 940.7,822.8 1257.5,388.8 			"/>
			<polygon id="XMLID_364_" class="st3" points="1268.7,390.5 941.9,838.2 940.7,838.2 940.7,836.5 1267.5,388.8 1268.7,388.8 			
				"/>
			<polygon id="XMLID_363_" class="st3" points="949.5,838.2 1268.7,400.8 1268.7,404.2 952,838.2 			"/>
			<polygon id="XMLID_362_" class="st3" points="959.5,838.2 1268.7,414.5 1268.7,417.9 962,838.2 			"/>
			<polygon id="XMLID_361_" class="st3" points="969.5,838.2 1268.7,428.2 1268.7,431.7 972,838.2 			"/>
			<polygon id="XMLID_360_" class="st3" points="979.5,838.2 1268.7,441.9 1268.7,445.4 982,838.2 			"/>
			<polygon id="XMLID_359_" class="st3" points="989.5,838.2 1268.7,455.7 1268.7,459.1 992.1,838.2 			"/>
			<polygon id="XMLID_358_" class="st3" points="999.5,838.2 1268.7,469.4 1268.7,472.8 1002,838.2 			"/>
			<polygon id="XMLID_357_" class="st3" points="1009.6,838.2 1268.7,483.1 1268.7,486.6 1012.1,838.2 			"/>
			<polygon id="XMLID_356_" class="st3" points="1019.6,838.2 1268.7,496.9 1268.7,500.3 1022.1,838.2 			"/>
			<polygon id="XMLID_355_" class="st3" points="1029.6,838.2 1268.7,510.6 1268.7,514 1032.1,838.2 			"/>
			<polygon id="XMLID_354_" class="st3" points="1039.6,838.2 1268.7,524.3 1268.7,527.7 1042.1,838.2 			"/>
			<polygon id="XMLID_353_" class="st3" points="1049.7,838.2 1268.7,538.1 1268.7,541.5 1052.2,838.2 			"/>
			<polygon id="XMLID_352_" class="st3" points="1059.6,838.2 1268.7,551.8 1268.7,555.2 1062.2,838.2 			"/>
			<polygon id="XMLID_351_" class="st3" points="1069.7,838.2 1268.7,565.5 1268.7,568.9 1072.2,838.2 			"/>
			<polygon id="XMLID_350_" class="st3" points="1079.7,838.2 1268.7,579.2 1268.7,582.7 1082.2,838.2 			"/>
			<polygon id="XMLID_349_" class="st3" points="1089.7,838.2 1268.7,593 1268.7,596.4 1092.2,838.2 			"/>
			<polygon id="XMLID_348_" class="st3" points="1099.7,838.2 1268.7,606.7 1268.7,610.1 1102.3,838.2 			"/>
			<polygon id="XMLID_347_" class="st3" points="1109.7,838.2 1268.7,620.4 1268.7,623.9 1112.2,838.2 			"/>
			<polygon id="XMLID_346_" class="st3" points="1119.8,838.2 1268.7,634.1 1268.7,637.6 1122.3,838.2 			"/>
			<polygon id="XMLID_345_" class="st3" points="1129.8,838.2 1268.7,647.9 1268.7,651.3 1132.3,838.2 			"/>
			<polygon id="XMLID_344_" class="st3" points="1139.8,838.2 1268.7,661.6 1268.7,665.1 1142.3,838.2 			"/>
			<polygon id="XMLID_343_" class="st3" points="1149.8,838.2 1268.7,675.3 1268.7,678.7 1152.3,838.2 			"/>
			<polygon id="XMLID_342_" class="st3" points="1159.9,838.2 1268.7,689 1268.7,692.5 1162.4,838.2 			"/>
			<polygon id="XMLID_341_" class="st3" points="1169.8,838.2 1268.7,702.8 1268.7,706.2 1172.4,838.2 			"/>
			<polygon id="XMLID_340_" class="st3" points="1179.9,838.2 1268.7,716.5 1268.7,719.9 1182.4,838.2 			"/>
			<polygon id="XMLID_339_" class="st3" points="1189.9,838.2 1268.7,730.2 1268.7,733.7 1192.4,838.2 			"/>
			<polygon id="XMLID_338_" class="st3" points="1199.9,838.2 1268.7,744 1268.7,747.4 1202.4,838.2 			"/>
			<polygon id="XMLID_337_" class="st3" points="1209.9,838.2 1268.7,757.7 1268.7,761.1 1212.4,838.2 			"/>
			<polygon id="XMLID_336_" class="st3" points="1220,838.2 1268.7,771.5 1268.7,774.9 1222.4,838.2 			"/>
			<polygon id="XMLID_335_" class="st3" points="1230,838.2 1268.7,785.2 1268.7,788.6 1232.5,838.2 			"/>
			<polygon id="XMLID_334_" class="st3" points="1240,838.2 1268.7,798.9 1268.7,802.3 1242.5,838.2 			"/>
			<polygon id="XMLID_333_" class="st3" points="1250,838.2 1268.7,812.6 1268.7,816 1252.5,838.2 			"/>
			<polygon id="XMLID_332_" class="st3" points="1260,838.2 1268.7,826.3 1268.7,829.8 1262.5,838.2 			"/>
		</g>
		<g id="XMLID_397_" class="st2">
			<polygon id="XMLID_462_" class="st3" points="1277.4,378.8 1268.7,390.6 1268.7,387.2 1274.9,378.8 			"/>
			<polygon id="XMLID_461_" class="st3" points="1287.4,378.7 1268.7,404.3 1268.7,400.9 1284.9,378.7 			"/>
			<polygon id="XMLID_460_" class="st3" points="1297.4,378.6 1268.7,417.9 1268.7,414.5 1294.9,378.6 			"/>
			<polygon id="XMLID_459_" class="st3" points="1307.4,378.7 1268.7,431.8 1268.7,428.3 1304.9,378.7 			"/>
			<polygon id="XMLID_458_" class="st3" points="1317.4,378.8 1268.7,445.6 1268.7,442.1 1315,378.8 			"/>
			<polygon id="XMLID_457_" class="st3" points="1327.5,378.8 1268.7,459.3 1268.7,455.9 1325,378.8 			"/>
			<polygon id="XMLID_456_" class="st3" points="1337.5,378.8 1268.7,473 1268.7,469.6 1335,378.8 			"/>
			<polygon id="XMLID_455_" class="st3" points="1347.5,378.8 1268.7,486.8 1268.7,483.3 1345,378.8 			"/>
			<polygon id="XMLID_454_" class="st3" points="1357.5,378.8 1268.7,500.5 1268.7,497.1 1355,378.8 			"/>
			<polygon id="XMLID_453_" class="st3" points="1367.6,378.8 1268.7,514.2 1268.7,510.8 1365.1,378.8 			"/>
			<polygon id="XMLID_452_" class="st3" points="1377.6,378.8 1268.7,527.9 1268.7,524.5 1375,378.8 			"/>
			<polygon id="XMLID_451_" class="st3" points="1387.6,378.8 1268.7,541.7 1268.7,538.2 1385.1,378.8 			"/>
			<polygon id="XMLID_450_" class="st3" points="1397.6,378.8 1268.7,555.4 1268.7,552 1395.1,378.8 			"/>
			<polygon id="XMLID_449_" class="st3" points="1407.6,378.8 1268.7,569.1 1268.7,565.7 1405.1,378.8 			"/>
			<polygon id="XMLID_448_" class="st3" points="1417.7,378.8 1268.7,582.9 1268.7,579.4 1415.1,378.8 			"/>
			<polygon id="XMLID_447_" class="st3" points="1427.7,378.8 1268.7,596.6 1268.7,593.1 1425.2,378.8 			"/>
			<polygon id="XMLID_446_" class="st3" points="1437.7,378.8 1268.7,610.3 1268.7,606.9 1435.2,378.8 			"/>
			<polygon id="XMLID_445_" class="st3" points="1447.7,378.8 1268.7,624 1268.7,620.6 1445.2,378.8 			"/>
			<polygon id="XMLID_444_" class="st3" points="1457.7,378.8 1268.7,637.8 1268.7,634.4 1455.2,378.8 			"/>
			<polygon id="XMLID_443_" class="st3" points="1467.7,378.8 1268.7,651.5 1268.7,648.1 1465.2,378.8 			"/>
			<polygon id="XMLID_442_" class="st3" points="1477.8,378.8 1268.7,665.2 1268.7,661.8 1475.3,378.8 			"/>
			<polygon id="XMLID_441_" class="st3" points="1487.8,378.8 1268.7,679 1268.7,675.5 1485.2,378.8 			"/>
			<polygon id="XMLID_440_" class="st3" points="1497.8,378.8 1268.7,692.7 1268.7,689.3 1495.3,378.8 			"/>
			<polygon id="XMLID_439_" class="st3" points="1507.8,378.8 1268.7,706.4 1268.7,703 1505.3,378.8 			"/>
			<polygon id="XMLID_438_" class="st3" points="1517.8,378.8 1268.7,720.2 1268.7,716.7 1515.4,378.8 			"/>
			<polygon id="XMLID_437_" class="st3" points="1527.8,378.8 1268.7,733.8 1268.7,730.4 1525.3,378.8 			"/>
			<polygon id="XMLID_436_" class="st3" points="1537.9,378.8 1268.7,747.6 1268.7,744.1 1535.4,378.8 			"/>
			<polygon id="XMLID_435_" class="st3" points="1547.9,378.8 1268.7,761.3 1268.7,757.9 1545.4,378.8 			"/>
			<polygon id="XMLID_434_" class="st3" points="1557.9,378.8 1268.7,775 1268.7,771.6 1555.4,378.8 			"/>
			<polygon id="XMLID_433_" class="st3" points="1567.9,378.8 1268.7,788.8 1268.7,785.3 1565.4,378.8 			"/>
			<polygon id="XMLID_432_" class="st3" points="1577.9,378.8 1268.7,802.5 1268.7,799.1 1575.4,378.8 			"/>
			<polygon id="XMLID_431_" class="st3" points="1588,378.8 1268.7,816.2 1268.7,812.8 1585.5,378.8 			"/>
			<polygon id="XMLID_430_" class="st3" points="1596.7,380.5 1269.9,828.2 1268.7,828.2 1268.7,826.5 1595.5,378.8 1596.7,378.8 
							"/>
			<polygon id="XMLID_429_" class="st3" points="1277.5,828.2 1596.7,390.8 1596.7,394.2 1280,828.2 			"/>
			<polygon id="XMLID_428_" class="st3" points="1287.5,828.2 1596.7,404.5 1596.7,407.9 1290,828.2 			"/>
			<polygon id="XMLID_427_" class="st3" points="1297.5,828.2 1596.7,418.2 1596.7,421.7 1300,828.2 			"/>
			<polygon id="XMLID_426_" class="st3" points="1307.5,828.2 1596.7,431.9 1596.7,435.4 1310,828.2 			"/>
			<polygon id="XMLID_425_" class="st3" points="1317.5,828.2 1596.7,445.7 1596.7,449.1 1320.1,828.2 			"/>
			<polygon id="XMLID_424_" class="st3" points="1327.5,828.2 1596.7,459.4 1596.7,462.8 1330,828.2 			"/>
			<polygon id="XMLID_423_" class="st3" points="1337.6,828.2 1596.7,473.1 1596.7,476.6 1340.1,828.2 			"/>
			<polygon id="XMLID_422_" class="st3" points="1347.6,828.2 1596.7,486.9 1596.7,490.3 1350.1,828.2 			"/>
			<polygon id="XMLID_421_" class="st3" points="1357.6,828.2 1596.7,500.6 1596.7,504 1360.1,828.2 			"/>
			<polygon id="XMLID_420_" class="st3" points="1367.6,828.2 1596.7,514.3 1596.7,517.7 1370.1,828.2 			"/>
			<polygon id="XMLID_419_" class="st3" points="1377.7,828.2 1596.7,528.1 1596.7,531.5 1380.2,828.2 			"/>
			<polygon id="XMLID_418_" class="st3" points="1387.6,828.2 1596.7,541.8 1596.7,545.2 1390.2,828.2 			"/>
			<polygon id="XMLID_417_" class="st3" points="1397.7,828.2 1596.7,555.5 1596.7,558.9 1400.2,828.2 			"/>
			<polygon id="XMLID_416_" class="st3" points="1407.7,828.2 1596.7,569.2 1596.7,572.7 1410.2,828.2 			"/>
			<polygon id="XMLID_415_" class="st3" points="1417.7,828.2 1596.7,583 1596.7,586.4 1420.2,828.2 			"/>
			<polygon id="XMLID_414_" class="st3" points="1427.7,828.2 1596.7,596.7 1596.7,600.1 1430.3,828.2 			"/>
			<polygon id="XMLID_413_" class="st3" points="1437.7,828.2 1596.7,610.4 1596.7,613.9 1440.2,828.2 			"/>
			<polygon id="XMLID_412_" class="st3" points="1447.8,828.2 1596.7,624.1 1596.7,627.6 1450.3,828.2 			"/>
			<polygon id="XMLID_411_" class="st3" points="1457.8,828.2 1596.7,637.9 1596.7,641.3 1460.3,828.2 			"/>
			<polygon id="XMLID_410_" class="st3" points="1467.8,828.2 1596.7,651.6 1596.7,655.1 1470.3,828.2 			"/>
			<polygon id="XMLID_409_" class="st3" points="1477.8,828.2 1596.7,665.3 1596.7,668.7 1480.3,828.2 			"/>
			<polygon id="XMLID_408_" class="st3" points="1487.9,828.2 1596.7,679 1596.7,682.5 1490.4,828.2 			"/>
			<polygon id="XMLID_407_" class="st3" points="1497.8,828.2 1596.7,692.8 1596.7,696.2 1500.4,828.2 			"/>
			<polygon id="XMLID_406_" class="st3" points="1507.9,828.2 1596.7,706.5 1596.7,709.9 1510.4,828.2 			"/>
			<polygon id="XMLID_405_" class="st3" points="1517.9,828.2 1596.7,720.2 1596.7,723.7 1520.4,828.2 			"/>
			<polygon id="XMLID_404_" class="st3" points="1527.9,828.2 1596.7,734 1596.7,737.4 1530.4,828.2 			"/>
			<polygon id="XMLID_403_" class="st3" points="1537.9,828.2 1596.7,747.7 1596.7,751.1 1540.4,828.2 			"/>
			<polygon id="XMLID_402_" class="st3" points="1548,828.2 1596.7,761.5 1596.7,764.9 1550.4,828.2 			"/>
			<polygon id="XMLID_401_" class="st3" points="1558,828.2 1596.7,775.2 1596.7,778.6 1560.5,828.2 			"/>
			<polygon id="XMLID_400_" class="st3" points="1568,828.2 1596.7,788.9 1596.7,792.3 1570.5,828.2 			"/>
			<polygon id="XMLID_399_" class="st3" points="1578,828.2 1596.7,802.6 1596.7,806 1580.5,828.2 			"/>
			<polygon id="XMLID_398_" class="st3" points="1588,828.2 1596.7,816.3 1596.7,819.8 1590.5,828.2 			"/>
		</g>
		<g id="XMLID_463_" class="st2">
			<polygon id="XMLID_528_" class="st3" points="1605.4,382.4 1596.7,394.2 1596.6,390.8 1602.9,382.4 			"/>
			<polygon id="XMLID_527_" class="st3" points="1615.4,382.3 1596.7,407.9 1596.7,404.5 1612.9,382.3 			"/>
			<polygon id="XMLID_526_" class="st3" points="1625.3,382.3 1596.7,421.7 1596.6,418.2 1622.8,382.3 			"/>
			<polygon id="XMLID_525_" class="st3" points="1635.4,382.3 1596.7,435.4 1596.7,431.9 1632.9,382.3 			"/>
			<polygon id="XMLID_524_" class="st3" points="1645.4,382.4 1596.7,449.2 1596.7,445.7 1643,382.4 			"/>
			<polygon id="XMLID_523_" class="st3" points="1655.5,382.4 1596.7,462.9 1596.7,459.5 1653,382.4 			"/>
			<polygon id="XMLID_522_" class="st3" points="1665.5,382.4 1596.7,476.6 1596.7,473.2 1663,382.4 			"/>
			<polygon id="XMLID_521_" class="st3" points="1675.5,382.4 1596.7,490.4 1596.7,486.9 1673,382.4 			"/>
			<polygon id="XMLID_520_" class="st3" points="1685.5,382.4 1596.7,504.1 1596.7,500.7 1683,382.4 			"/>
			<polygon id="XMLID_519_" class="st3" points="1695.6,382.4 1596.7,517.8 1596.7,514.4 1693.1,382.4 			"/>
			<polygon id="XMLID_518_" class="st3" points="1705.6,382.4 1596.7,531.5 1596.7,528.1 1703,382.4 			"/>
			<polygon id="XMLID_517_" class="st3" points="1715.6,382.4 1596.7,545.3 1596.7,541.8 1713.1,382.4 			"/>
			<polygon id="XMLID_516_" class="st3" points="1725.6,382.4 1596.7,559 1596.7,555.6 1723.1,382.4 			"/>
			<polygon id="XMLID_515_" class="st3" points="1735.6,382.4 1596.7,572.7 1596.7,569.3 1733.1,382.4 			"/>
			<polygon id="XMLID_514_" class="st3" points="1745.7,382.4 1596.7,586.5 1596.7,583 1743.1,382.4 			"/>
			<polygon id="XMLID_513_" class="st3" points="1755.7,382.4 1596.7,600.2 1596.7,596.7 1753.2,382.4 			"/>
			<polygon id="XMLID_512_" class="st3" points="1765.7,382.4 1596.7,613.9 1596.7,610.5 1763.2,382.4 			"/>
			<polygon id="XMLID_511_" class="st3" points="1775.7,382.4 1596.7,627.6 1596.7,624.2 1773.2,382.4 			"/>
			<polygon id="XMLID_510_" class="st3" points="1785.7,382.4 1596.7,641.4 1596.7,638 1783.2,382.4 			"/>
			<polygon id="XMLID_509_" class="st3" points="1795.7,382.4 1596.7,655.1 1596.7,651.7 1793.2,382.4 			"/>
			<polygon id="XMLID_508_" class="st3" points="1805.8,382.4 1596.7,668.8 1596.7,665.4 1803.3,382.4 			"/>
			<polygon id="XMLID_507_" class="st3" points="1815.8,382.4 1596.7,682.6 1596.7,679.1 1813.2,382.4 			"/>
			<polygon id="XMLID_506_" class="st3" points="1825.8,382.4 1596.7,696.3 1596.7,692.9 1823.3,382.4 			"/>
			<polygon id="XMLID_505_" class="st3" points="1835.8,382.4 1596.7,710 1596.7,706.6 1833.3,382.4 			"/>
			<polygon id="XMLID_504_" class="st3" points="1845.8,382.4 1596.7,723.8 1596.7,720.3 1843.4,382.4 			"/>
			<polygon id="XMLID_503_" class="st3" points="1855.8,382.4 1596.7,737.4 1596.7,734 1853.3,382.4 			"/>
			<polygon id="XMLID_502_" class="st3" points="1865.9,382.4 1596.7,751.2 1596.7,747.7 1863.4,382.4 			"/>
			<polygon id="XMLID_501_" class="st3" points="1875.9,382.4 1596.7,764.9 1596.7,761.5 1873.4,382.4 			"/>
			<polygon id="XMLID_500_" class="st3" points="1885.9,382.4 1596.7,778.6 1596.7,775.2 1883.4,382.4 			"/>
			<polygon id="XMLID_499_" class="st3" points="1895.9,382.4 1596.7,792.4 1596.7,788.9 1893.4,382.4 			"/>
			<polygon id="XMLID_498_" class="st3" points="1905.9,382.4 1596.7,806.1 1596.7,802.7 1903.4,382.4 			"/>
			<polygon id="XMLID_497_" class="st3" points="1916,382.4 1596.7,819.8 1596.7,816.4 1913.5,382.4 			"/>
			<polygon id="XMLID_496_" class="st3" points="1924.7,384.1 1597.9,831.8 1596.7,831.8 1596.7,830.1 1923.5,382.4 1924.7,382.4 
							"/>
			<polygon id="XMLID_495_" class="st3" points="1605.5,831.8 1924.7,394.4 1924.7,397.8 1608,831.8 			"/>
			<polygon id="XMLID_494_" class="st3" points="1615.5,831.8 1924.7,408.1 1924.7,411.5 1618,831.8 			"/>
			<polygon id="XMLID_493_" class="st3" points="1625.5,831.8 1924.7,421.8 1924.7,425.3 1628,831.8 			"/>
			<polygon id="XMLID_492_" class="st3" points="1635.5,831.8 1924.7,435.5 1924.7,439 1638,831.8 			"/>
			<polygon id="XMLID_491_" class="st3" points="1645.5,831.8 1924.7,449.3 1924.7,452.7 1648.1,831.8 			"/>
			<polygon id="XMLID_490_" class="st3" points="1655.5,831.8 1924.7,463 1924.7,466.4 1658,831.8 			"/>
			<polygon id="XMLID_489_" class="st3" points="1665.6,831.8 1924.7,476.7 1924.7,480.2 1668.1,831.8 			"/>
			<polygon id="XMLID_488_" class="st3" points="1675.6,831.8 1924.7,490.5 1924.7,493.9 1678.1,831.8 			"/>
			<polygon id="XMLID_487_" class="st3" points="1685.6,831.8 1924.7,504.2 1924.7,507.6 1688.1,831.8 			"/>
			<polygon id="XMLID_486_" class="st3" points="1695.6,831.8 1924.7,517.9 1924.7,521.3 1698.1,831.8 			"/>
			<polygon id="XMLID_485_" class="st3" points="1705.7,831.8 1924.7,531.7 1924.7,535.1 1708.2,831.8 			"/>
			<polygon id="XMLID_484_" class="st3" points="1715.6,831.8 1924.7,545.4 1924.7,548.8 1718.2,831.8 			"/>
			<polygon id="XMLID_483_" class="st3" points="1725.7,831.8 1924.7,559.1 1924.7,562.5 1728.2,831.8 			"/>
			<polygon id="XMLID_482_" class="st3" points="1735.7,831.8 1924.7,572.8 1924.7,576.3 1738.2,831.8 			"/>
			<polygon id="XMLID_481_" class="st3" points="1745.7,831.8 1924.7,586.6 1924.7,590 1748.2,831.8 			"/>
			<polygon id="XMLID_480_" class="st3" points="1755.7,831.8 1924.7,600.3 1924.7,603.7 1758.3,831.8 			"/>
			<polygon id="XMLID_479_" class="st3" points="1765.7,831.8 1924.7,614 1924.7,617.5 1768.2,831.8 			"/>
			<polygon id="XMLID_478_" class="st3" points="1775.8,831.8 1924.7,627.7 1924.7,631.2 1778.3,831.8 			"/>
			<polygon id="XMLID_477_" class="st3" points="1785.8,831.8 1924.7,641.5 1924.7,644.9 1788.3,831.8 			"/>
			<polygon id="XMLID_476_" class="st3" points="1795.8,831.8 1924.7,655.2 1924.7,658.7 1798.3,831.8 			"/>
			<polygon id="XMLID_475_" class="st3" points="1805.8,831.8 1924.7,668.9 1924.7,672.3 1808.3,831.8 			"/>
			<polygon id="XMLID_474_" class="st3" points="1815.9,831.8 1924.7,682.6 1924.7,686.1 1818.4,831.8 			"/>
			<polygon id="XMLID_473_" class="st3" points="1825.8,831.8 1924.7,696.4 1924.7,699.8 1828.4,831.8 			"/>
			<polygon id="XMLID_472_" class="st3" points="1835.9,831.8 1924.7,710.1 1924.7,713.5 1838.4,831.8 			"/>
			<polygon id="XMLID_471_" class="st3" points="1845.9,831.8 1924.7,723.8 1924.7,727.3 1848.4,831.8 			"/>
			<polygon id="XMLID_470_" class="st3" points="1855.9,831.8 1924.7,737.6 1924.7,741 1858.4,831.8 			"/>
			<polygon id="XMLID_469_" class="st3" points="1865.9,831.8 1924.7,751.3 1924.7,754.7 1868.4,831.8 			"/>
			<polygon id="XMLID_468_" class="st3" points="1876,831.8 1924.7,765.1 1924.7,768.5 1878.4,831.8 			"/>
			<polygon id="XMLID_467_" class="st3" points="1886,831.8 1924.7,778.8 1924.7,782.2 1888.5,831.8 			"/>
			<polygon id="XMLID_466_" class="st3" points="1896,831.8 1924.7,792.5 1924.7,795.9 1898.5,831.8 			"/>
			<polygon id="XMLID_465_" class="st3" points="1906,831.8 1924.7,806.2 1924.7,809.6 1908.5,831.8 			"/>
			<polygon id="XMLID_464_" class="st3" points="1916,831.8 1924.7,819.9 1924.7,823.4 1918.5,831.8 			"/>
		</g>
	</g>
	<g id="top" class="st1">
		<polygon class="st4" points="52,444.2 1826,443.8 1826,450.6 23.8,451 23.8,451 23.8,450.9 16.9,444.1 51.9,444.2 		"/>
		<polygon class="st4" points="11.7,405.2 11.9,405.2 5,398.5 -174,398.5 -174,405.2 -23.3,405.2 9.7,437.4 44.7,437.4 		"/>
		<polygon class="st5" points="10,437.4 -30,398.5 -36.9,391.8 -174,391.8 -174,398.5 -65,398.5 -25.1,437.4 -18.2,444.1 
			1826,443.9 1826,437.2 		"/>
		<path class="st6" d="M1608,437.2"/>
		<polygon class="st7" points="-174,405.2 -57.3,406 -18.2,444.1 16.9,444.1 23.8,450.9 -174,451 		"/>
		
			<linearGradient id="SVGID_5_" gradientUnits="userSpaceOnUse" x1="-174" y1="420.33" x2="1826.0001" y2="420.33" gradientTransform="matrix(1 0 0 -1 0 841.67)">
			<stop  offset="0" style="stop-color:#FFFFFF"/>
			<stop  offset="1" style="stop-color:#000000"/>
		</linearGradient>
		<polyline class="st8" points="-174,398.5 -65,398.5 -18.2,444.1 1826,443.8 		"/>
	</g>
</g>
</svg>
