<?xml version="1.0" encoding="utf-8"?>
<!-- Generator: Adobe Illustrator 16.0.0, SVG Export Plug-In . SVG Version: 6.00 Build 0)  -->
<!DOCTYPE svg PUBLIC "-//W3C//DTD SVG 1.1//EN" "http://www.w3.org/Graphics/SVG/1.1/DTD/svg11.dtd">
<svg version="1.1" id="Layer_1" xmlns="http://www.w3.org/2000/svg" xmlns:xlink="http://www.w3.org/1999/xlink" x="0px" y="0px"
	 width="841.89px" height="595.28px" viewBox="0 0 841.89 595.28" enable-background="new 0 0 841.89 595.28" xml:space="preserve">
<path fill="#FFFFFF" d="M268.696,336.106h-24.543l-5.663-20.451h-35.084l-5.665,20.451h-24.541l31.938-104.777H236.6
	L268.696,336.106z M208.755,295.99h24.069l-11.956-43.893L208.755,295.99z M340.587,309.36c0,18.093-7.866,28.319-25.8,28.319
	c-6.292,0-14.316-0.943-19.508-2.203v31.624l-22.657,3.146V259.491h17.779l2.358,6.135c5.349-3.46,15.263-7.708,23.6-7.708
	c15.576,0,24.227,9.594,24.227,28.317V309.36z M295.279,316.127c3.932,0.943,9.752,1.887,14.472,1.887
	c5.979,0,8.182-3.617,8.182-8.653v-23.125c0-5.35-2.203-8.654-8.182-8.654c-5.191,0-11.17,3.146-14.472,5.979V316.127z
	 M349.235,336.106V228.183l22.654-3.146v111.07H349.235z M384.472,249.894v-24.071h22.654v24.071H384.472z M384.472,336.106v-76.616
	h22.65476.616H384.472z M414.99,282.93c0.313-15.418,8.809-25.012,31.308-25.012c5.032,0,9.28,0.627,13.057,1.573h23.913v10.696
	l-7.707,2.833c1.257,2.988,1.887,6.451,2.045,9.911v9.284c0,14.63-10.228,24.386-31.308,24.386h-2.361
	c-1.573,0.943-3.305,2.044-3.305,4.247c0,1.731,1.102,2.988,2.52,3.146c10.224,1.102,13.37,1.415,19.036,1.887
	c12.898,1.102,18.564,5.508,18.564,18.723c0,18.406-11.486,24.071-35.242,24.071c-7.55,0-20.451-1.259-30.52-3.934l3.304-16.52
	c9.123,2.203,18.406,3.146,25.171,3.146c11.8,0,16.52-0.472,16.52-5.505c0-2.991-1.415-3.776-5.979-4.248
	c-8.651-0.788-10.068-0.946-19.508-1.89c-10.382-1.102-16.361-3.304-16.361-13.845c0-6.135,2.833-10.225,6.606-14
	c-6.606-3.935-9.752-10.541-9.752-19.666V282.93z M456.521,291.112v-7.236c0-5.035-2.672-8.023-10.224-8.023
	c-7.553,0-10.228,2.988-10.228,8.023v7.236c0,5.191,2.833,7.552,10.228,7.552C453.691,298.665,456.521,296.304,456.521,291.112z
	 M506.705,305.742v2.203c0,8.812,3.462,11.17,13.845,11.17c7.078,0,16.52-1.259,23.284-3.304l3.304,16.991
	c-6.922,2.517-18.093,4.877-28.791,4.877c-24.856,0-34.296-12.271-34.296-31.149v-17.935c0-16.52,7.395-30.678,32.881-30.678
	c25.484,0,30.992,15.102,30.992,31.779v16.045H506.705z M526.526,285.449c0-5.349-1.573-9.755-9.439-9.755
	c-7.865,0-10.382,4.406-10.382,9.755v3.302h19.821V285.449z M601.253,336.106v-50.657c0-3.462-1.573-5.507-5.505-5.507
	c-4.09,0-11.642,2.833-16.52,5.507v50.657h-22.654v-76.616h16.833l2.358,5.821c9.442-4.564,21.714-7.394,30.522-7.394
	c6.765,0,11.329,2.672,14.001,7.394c8.653-4.248,20.138-7.394,30.681-7.394c13.057,0,17.618,9.752,17.618,24.541v53.648h-22.654
	v-50.657c0-3.462-1.573-5.507-5.507-5.507c-4.09,0-11.643,2.833-16.518,5.507v50.657H601.253z"/>
</svg>
